<?xml version="1.0" standalone="no"?>
<!DOCTYPE svg PUBLIC "-//W3C//DTD SVG 1.1//EN" "http://www.w3.org/Graphics/SVG/1.1/DTD/svg11.dtd" >
<!--
2013-9-30: Created.
-->
<svg>
<metadata>
Created by iconfont
</metadata>
<defs>

<font id="iconfont" horiz-adv-x="1024" >
  <font-face
    font-family="iconfont"
    font-weight="500"
    font-stretch="normal"
    units-per-em="1024"
    ascent="896"
    descent="-128"
  />
    <missing-glyph />
    
    <glyph glyph-name="sousuo" unicode="&#58881;" d="M942.51008-29.199616 693.018624 178.683648c46.731264 59.646976 74.596352 134.784 74.596352 216.434688 0 193.984512-157.267968 351.243264-351.25248 351.243264-193.984512 0-351.235072-157.258752-351.235072-351.243264 0-193.992704 157.25056-351.243264 351.235072-351.243264 79.474688 0 152.774656 26.407936 211.634176 70.909952l256.449536-213.664768c19.239936-16.03584 47.835136-13.431808 63.872 5.789696C964.354048-73.832704 961.750016-45.23648 942.51008-29.199616zM133.164032 395.32416c0 156.608512 126.958592 283.557888 283.574272 283.557888 156.599296 0 283.557888-126.949376 283.557888-283.557888s-126.957568-283.56608-283.557888-283.56608C260.122624 111.75808 133.164032 238.715648 133.164032 395.32416z"  horiz-adv-x="1024" />

    
    <glyph glyph-name="jianxiu" unicode="&#59062;" d="M725.35276555 15.490881820000027L409.65039908 312.95996325c-22.849933 21.53068873-54.1045691 33.30490855-86.40555111 32.5413588-65.5875088-1.55255114-130.73668352 21.52503281-179.87393735 67.82725473-71.27171244 67.15561375-103.52461911 169.8290163-41.79020853 285.32015664l161.61661465-152.28292604c33.32046233 8.62245615 77.62048716 50.07472322 86.82550346 81.80587091L188.39772167 780.46026027c123.9792683 58.82019573 231.46020627 27.84694187 302.8082737-39.38078492 48.33411262-45.54150014 73.63871664-106.96200694 71.99425674-169.52783836-0.79889926-30.44018302 11.68655298-59.85240187 34.53789998-81.38167659L913.43344864 192.70512091c51.84785541-48.85869957 51.84785541-128.35412554 0.00282796-177.21282509C861.46257686-33.471038359999966 777.3391911-33.49366207000003 725.35276555 15.490881820000027zM329.11993904 406.02536489c43.14338835 2.66676817 85.40869451-12.33981221 115.98037778-41.15108911l325.52246451-306.72641506c26.95471986-25.39509881 70.57179185-25.39509881 97.53640958 0.00282796 26.8840208 25.33288365 26.8840208 66.56174173-0.00424195 91.89603935L542.63107045 456.77738502c-30.5236079 28.75895961-46.47614159 68.60353028-43.6764592 109.18619906 6.78286688 98.65628253-77.28395967 185.09152724-186.1661528 182.60574865l101.79107842-95.91033144c9.30540898-23.51591805-11.19448761-74.4460998-48.47975266-111.71015512-42.04048317-42.01361754-102.77662317-64.59489414-128.89002434-55.41250154l-101.94661632 96.05879943C132.19763274 480.17735663 223.75290268 399.49701459 329.11993904 406.02536489zM816.89248169 67.70920025999999c-22.26030292 0-40.30835645 17.00312156-40.30835644 37.98377169 0 20.97358022 18.04805353 37.97811575 40.30835644 37.97811575 22.25888895 0 40.30977042-17.00453554 40.30977044-37.97811575C857.20225213 84.71373578999999 839.15278461 67.70920025999999 816.89248169 67.70920025999999z"  horiz-adv-x="1024" />

    
    <glyph glyph-name="fanhui" unicode="&#58883;" d="M277.46498219 361.00941027L277.46498219 361.00941027c2.02186525-3.50401309 3.50401309-7.27096661 6.60116252-10.36811491 0.67533938-0.54110208 1.21090503-0.94104576 1.75062244-1.48214784 0.80680846-0.67533938 1.07666773-1.75062243 1.75200711-2.42181006l377.03986517-363.44451413c9.96401949-9.69277667 22.89371819-14.54193209 35.81926514-14.5419321 13.46664903 0 27.06753422 5.38472221 37.165791 15.8884591 19.79518407 20.60199367 19.25546667 53.32825998-1.346527 73.11929344l-340.14531698 327.76087097 341.49184284 323.04041756c20.73623097 19.66094677 21.68281202 52.38306247 2.02186525 73.11929344-19.66233145 20.73761451-52.38306247 21.68281202-73.11929344 2.02186525L285.95238912 423.75920413c-16.69803577-15.75145358-19.79656875-39.99169763-10.36811491-59.65264442C275.98283435 363.03127552 276.92941653 362.08469333000005 277.46498219 361.00941027L277.46498219 361.00941027zM277.46498219 361.00941027"  horiz-adv-x="1024" />

    
    <glyph glyph-name="yonghu" unicode="&#58887;" d="M511.682263 832.032106c-246.931972 0-447.122387-199.919239-447.122387-446.540126 0-246.61884 200.190415-446.545242 447.122387-446.545242 246.939135 0 447.134667 199.923332 447.134667 446.545242C958.815907 632.111844 758.622422 832.032106 511.682263 832.032106zM511.682263-20.166039c-224.328162 0-406.187069 181.626617-406.187069 405.655973 0 224.043682 181.858908 405.659043 406.187069 405.659043 224.326115 0 406.187069-181.615361 406.187069-405.659043C917.867286 161.462624 736.008378-20.166039 511.682263-20.166039zM628.508016 262.724913c44.750203 35.240619 73.580832 89.780793 73.580832 151.166885 0 106.300025-86.174662 192.473663-192.474686 192.473663-106.299001 0-192.481849-86.173638-192.481849-192.473663 0-61.386092 28.838815-115.927289 73.579809-151.166885-80.223113-40.890292-136.694265-121.663944-142.936433-216.295208l35.054377 0c6.747681 88.61013 64.352657 162.881694 143.633305 194.064904 25.187659-12.08627 53.329603-19.086707 83.150792-19.086707 29.829376 0 57.94369 7.001461 83.150792 19.086707 79.281671-31.18321 136.885624-105.45068 143.641491-194.064904l35.045167 0C765.231957 141.061992 708.742385 221.83462 628.508016 262.724913L628.508016 262.724913zM509.623371 256.404973c-86.987167 0-157.482731 70.488401-157.482731 157.479661 0 86.987167 70.496587 157.475568 157.482731 157.475568 86.981027 0 157.468404-70.488401 157.468404-157.475568C667.090752 326.893374 596.594165 256.404973 509.623371 256.404973L509.623371 256.404973z"  horiz-adv-x="1024" />

    
    <glyph glyph-name="zhou" unicode="&#59167;" d="M633.888 126.72c-13.248 0-24 10.752-24 24s10.752 24 24 24c19.52 0 35.328 0.768 47.04 2.304 11.456 1.504 16.544 4.064 18.528 5.472 1.408 0.96 2.88 2.432 3.84 6.336 1.152 4.8 2.56 13.76 2.56 29.056 0 0.128 1.536 281.696 2.656 372.416L706.304 593.28c-71.552-0.384-263.584-0.384-334.464 0l-26.272-2.944 24-0.032c0-2.24-0.224-225.952-0.736-245.344-0.544-20.384-1.568-38.624-3.072-54.688-1.408-16-3.52-30.848-6.272-44-2.688-12.864-6.272-25.28-10.688-36.864-4.448-11.584-9.984-22.848-16.48-33.472-6.016-9.888-13.408-20.448-22.016-31.296-8.192-10.368-23.328-12.192-33.728-3.904-10.368 8.224-12.128 23.328-3.904 33.728 7.328 9.28 13.632 18.176 18.624 26.432 5.024 8.192 9.248 16.768 12.64 25.6 3.488 9.184 6.368 19.168 8.544 29.6 2.368 11.328 4.224 24.288 5.472 38.528 1.44 15.296 2.4 32.416 2.88 51.584 0.416 14.016 0.672 153.696 0.736 244.16 0.032 13.856 5.408 26.784 15.136 36.416 9.536 9.472 21.44 13.376 35.424 14.496 70.784-0.384 262.528-0.384 333.952 0 12.736-0.672 26.112-5.152 35.648-14.752 9.728-9.792 14.976-22.848 14.816-36.8-1.12-90.592-2.656-371.904-2.656-371.904 0-16.256-1.28-29.472-3.936-40.32-3.456-14.368-11.424-26.272-22.976-34.304-10.016-7.04-23.072-11.552-39.84-13.76C673.376 127.648 655.488 126.72 633.888 126.72zM632.064 461.28l-182.24 0c-13.248 0-24 10.752-24 24s10.752 24 24 24l182.24 0c13.248 0 24-10.752 24-24S645.312 461.28 632.064 461.28zM653.28 373.952l-224.672 0c-13.248 0-24 10.752-24 24s10.752 24 24 24l224.672 0c13.248 0 24-10.752 24-24S666.56 373.952 653.28 373.952zM540.96 384.672c-13.248 0-24 10.752-24 24l0 116.672c0 13.248 10.752 24 24 24s24-10.752 24-24l0-116.672C564.96 395.424 554.208 384.672 540.96 384.672zM585.504 193.28 486.72 193.28c-22.944 0-41.632 18.688-41.632 41.632L445.088 291.84c0 22.944 18.688 41.632 41.632 41.632l98.784 0c22.944 0 41.6-18.688 41.6-41.632l0-56.896C627.104 211.968 608.448 193.28 585.504 193.28zM493.12 241.28l86.016 0 0 44.16L493.12 285.44 493.12 241.28zM512-86.016c-259.2 0-470.016 210.848-470.016 470.016C41.984 643.168 252.832 854.016 512 854.016c259.168 0 470.016-210.848 470.016-470.016C982.016 124.832 771.168-86.016 512-86.016zM512 806.016C279.296 806.016 89.984 616.704 89.984 384c0-232.704 189.312-422.016 422.016-422.016 232.672 0 422.016 189.312 422.016 422.016C934.016 616.704 744.704 806.016 512 806.016z"  horiz-adv-x="1024" />

    
    <glyph glyph-name="arr" unicode="&#58882;" d="M300.295 832.185l455.941-446.71-455.941-446.709-35.439 34.694 420.652 412.015-420.652 412.016z"  horiz-adv-x="1024" />

    
    <glyph glyph-name="guanbi1" unicode="&#59043;" d="M915.2 726.4 572 384l341.6-341.6c16.8-16.8 16.8-44 0-60-16.8-16.8-44-16.8-60 0L512 323.2l-341.6-341.6c-16.8-16.8-44-16.8-60 0-16.8 16.8-16.8 44 0 60L452 384 108.8 726.4c-16.8 16.8-16.8 44 0 60 16.8 16.8 44 16.8 60 0L512 444l342.4 342.4c16.8 16.8 44 16.8 60 0C932 769.6 932 743.2 915.2 726.4z"  horiz-adv-x="1024" />

    
    <glyph glyph-name="jiancha" unicode="&#58896;" d="M512.089028 831.75786c-247.312642 0-447.786513-200.473871-447.786513-447.786513s200.473871-447.786513 447.786513-447.786513S959.87554 136.659729 959.87554 383.972371 759.40167 831.75786 512.089028 831.75786M512.089028-19.035286c-222.594681 0-403.007657 180.412976-403.007657 403.007657S289.494347 786.979004 512.089028 786.979004s403.007657-180.412976 403.007657-403.007657S734.683708-19.035286 512.089028-19.035286M383.27422 520.569422l27.275203 0c11.155061 0 16.742313-5.898337 16.742313-17.696034 0-11.81714-5.587252-17.715477-16.742313-17.715477l-27.275203 0 0-8.117888c10.201339-15.32094 19.292392-29.903054 27.275203-43.783179 7.962346-13.881149 15.301498-27.683503 21.999037-41.388643 3.5038-7.65126 4.944616-13.471826 4.301979-17.46272s-3.660366-7.573489-9.092076-10.766205c-5.100158-3.192715-9.714246-3.815909-13.861706-1.907443s-7.981788 7.164167-11.486612 15.788591c-2.550079 6.054903-5.509481 12.440333-8.857738 19.136849-3.348258 6.696516-6.77531 13.394055-10.279111 20.090571L383.273197 175.128879c0-6.696516-1.518586-11.388375-4.555759-14.114462-3.01773-2.705622-7.397481-4.068665-13.141298-4.068665-6.074346 0-10.531867 1.363044-13.413498 4.068665-2.862187 2.725064-4.301979 7.416923-4.301979 14.114462L347.860662 375.610936c-4.458545-12.128225-9.091052-24.003693-13.861706-35.645848-4.789073-11.661597-10.376325-23.848151-16.761756-36.599569-4.458545-8.624425-8.838296-13.802354-13.141298-15.555278-4.321422-1.7519-9.344832-0.87595-15.087627 2.62785-4.76963 2.862187-7.241938 6.463202-7.397481 10.766205-0.174985 4.301979 1.829671 10.279111 5.977132 17.949814 6.054903 11.155061 11.642155 22.641673 16.742313 34.43937 5.100158 11.797697 10.045797 24.393573 14.83487 37.807071 4.76963 13.394055 9.480932 27.819602 14.114462 43.297109 4.614088 15.458063 9.150404 32.29759 13.627369 50.461275l-36.833907 0c-10.843976 0-16.275685 5.898337-16.275685 17.715477 0 11.797697 5.431709 17.696034 16.275685 17.696034l37.787628 0 0 70.805626c0 13.08297 5.898337 19.623943 17.715477 19.623943 11.797697 0 17.696034-6.540973 17.696034-19.623943L383.272173 520.569422zM724.879412 209.100598c6.385431 0 10.921747-1.596358 13.646811-4.789073 2.705622-3.173273 4.049223-7.475252 4.049223-12.906961s-1.343601-9.733689-4.049223-12.926404c-2.725064-3.173273-7.261381-4.789073-13.646811-4.789073L427.758364 173.689087c-6.365988 0-10.921747 1.6158-13.627369 4.789073-2.705622 3.192715-4.068665 7.494695-4.068665 12.926404s1.363044 9.733689 4.068665 12.906961c2.705622 3.192715 7.261381 4.789073 13.627369 4.789073l190.902888 0c5.100158 14.990413 9.968026 30.623461 14.600533 46.898123 4.614088 16.256242 8.916067 32.608675 12.906961 49.039903 3.990894 16.411785 7.573489 32.843012 10.766205 49.273217 3.192715 16.431228 6.054903 32.29759 8.624425 47.599088 1.596358 9.247618 3.815909 15.788591 6.696516 19.623943 2.862187 3.815909 7.962346 5.256724 15.301498 4.301979 7.339152-0.953721 11.875468-3.5038 13.646811-7.65126 1.7519-4.146437 1.674129-11.81714-0.252757-22.972201-5.100158-29.66974-11.467169-60.369949-19.136849-92.102674-7.65126-31.732725-16.58677-63.076594-26.78811-94.01114L724.879412 209.099574zM692.348508 456.461335c0-11.486612-6.210445-17.229406-18.650779-17.229406L470.354508 439.231929c-12.770861 0-19.136849 5.742794-19.136849 17.229406l0 4.789073c-0.642636-0.642636-1.207501-1.050935-1.674129-1.207501-0.487094-0.155543-1.050935-0.564865-1.674129-1.187035-8.31334-5.742794-15.243169-8.779967-20.810978-9.092076-5.587252-0.330528-10.143011 2.862187-13.646811 9.558703-2.862187 5.100158-3.5038 9.81146-1.907443 14.114462 1.596358 4.321422 7.008624 9.655917 16.256242 16.041348 21.064758 14.347776 40.999786 30.214139 59.806107 47.599088 18.825764 17.384949 37.47552 36.911678 55.990199 58.618049 5.100158 5.723352 10.123568 9.636474 15.068184 11.719926 4.944616 2.064009 9.480932 3.095501 13.627369 3.095501 10.531867 0 20.110013-4.301979 28.714995-12.906961 20.402679-20.422122 40.902572-39.558971 61.480236-57.411571 20.577664-17.872043 42.011836-33.816177 64.341401-47.852868 8.624425-5.431709 13.56904-10.454096 14.83487-15.068184 1.285273-4.63353 0.487094-9.655917-2.394537-15.068184-3.815909-6.074346-8.292873-8.93551-13.394055-8.624425-5.100158 0.330528-11.642155 3.348258-19.6045 9.092076-11.486612 7.981788-23.127743 16.508999-34.925441 25.600051-11.81714 9.092076-23.205515 18.260899-34.224476 27.508517-10.999518 9.247618-21.278629 18.33867-30.856775 27.275203-9.558703 8.93551-17.8526 17.054421-24.879644 24.413016-3.5038 3.5038-6.210445 5.178953-8.117888 5.022387-1.926886-0.174985-4.63353-2.00568-8.137331-5.509481-15.32094-17.540492-30.953989-33.971719-46.898123-49.273217-15.944134-15.32094-32.375362-29.66974-49.273217-43.062771l204.784036 0C686.138062 474.644463 692.348508 468.570117 692.348508 456.461335zM525.371542 244.97976c0.642636-9.558703 0.077771-16.334014-1.674129-20.324908s-6.307659-6.463202-13.627369-7.416923c-6.716982-0.642636-11.661597 0.798179-14.83487 4.301979-3.192715 3.523243-5.119601 9.578146-5.742794 18.183128-0.953721 12.751419-2.316765 25.91216-4.068665 39.461757-1.7519 13.56904-3.679809 26.963095-5.742794 40.201607-2.083451 13.238512-4.301979 26.145473-6.696516 38.760792-2.394537 12.595876-5.022387 24.471344-7.904017 35.626405-2.550079 9.247618-3.037173 16.196891-1.421372 20.810978 1.576915 4.63353 5.567809 7.748475 11.95324 9.344832 7.339152 1.596358 12.595876 0.87595 15.788591-2.161223 3.192715-3.037173 5.898337-8.857738 8.137331-17.46272 2.550079-9.558703 5.100158-20.577664 7.65126-33.017998 2.550079-12.440333 4.944616-25.580608 7.18361-39.461757 2.219551-13.881149 4.301979-28.151154 6.210445-42.829458C522.509355 274.337391 524.08627 259.659087 525.371542 244.97976zM610.057293 253.118114c0.642636-9.558703-0.077771-16.256242-2.161223-20.090571-2.064009-3.835352-6.77531-6.054903-14.114462-6.696516-6.696516-0.642636-11.564383 0.87595-14.58109 4.536316-3.037173 3.679809-4.711302 9.81146-5.022387 18.416442-0.953721 25.853831-3.037173 52.077076-6.229888 78.709643s-7.164167 51.123354-11.95324 73.452919c-1.907443 9.247618-2.00568 16.177448-0.233314 20.810978 1.732457 4.614088 5.801123 7.573489 12.186554 8.838296 7.339152 1.285273 12.518105 0.409322 15.555278-2.62785 3.01773-3.037173 5.509481-9.013281 7.416923-17.930371 4.146437-19.779486 7.884574-43.627636 11.232832-71.544453C605.501534 311.093527 608.14985 282.456303 610.057293 253.118114z"  horiz-adv-x="1024" />

    
    <glyph glyph-name="yanqi" unicode="&#59150;" d="M512-64c-249.6 0-448 198.4-448 448 0 249.6 198.4 448 448 448 249.6 0 448-198.4 448-448C960 134.4 761.6-64 512-64zM512 768C300.8 768 128 595.2 128 384s172.8-384 384-384 384 172.8 384 384S723.2 768 512 768zM473.6 627.2l0-326.4 83.2 0L556.8 627.2 473.6 627.2zM473.6 140.8l83.2 0 0 83.2L473.6 224 473.6 140.8z"  horiz-adv-x="1024" />

    
    <glyph glyph-name="tianjia" unicode="&#59041;" d="M744.727273 407.272727l-209.454545 0 0 209.454545c0 13.963636-9.309091 23.272727-23.272727 23.272727s-23.272727-9.309091-23.272727-23.272727l0-209.454545-209.454545 0c-13.963636 0-23.272727-9.309091-23.272727-23.272727 0-13.963636 9.309091-23.272727 23.272727-23.272727l209.454545 0 0-209.454545c0-13.963636 9.309091-23.272727 23.272727-23.272727s23.272727 9.309091 23.272727 23.272727l0 209.454545 209.454545 0c13.963636 0 23.272727 9.309091 23.272727 23.272727C768 397.963636 758.690909 407.272727 744.727273 407.272727zM930.909091 896L93.090909 896C41.890909 896 0 854.109091 0 802.909091l0-837.818182c0-51.2 41.890909-93.090909 93.090909-93.090909l837.818182 0c51.2 0 93.090909 41.890909 93.090909 93.090909L1024 802.909091C1024 854.109091 982.109091 896 930.909091 896zM977.454545-34.90909099999999c0-25.6-20.945455-46.545455-46.545455-46.545455L93.090909-81.45454500000005c-25.6 0-46.545455 20.945455-46.545455 46.545455L46.545455 802.909091c0 25.6 20.945455 46.545455 46.545455 46.545455l837.818182 0c25.6 0 46.545455-20.945455 46.545455-46.545455L977.454545-34.90909099999999z"  horiz-adv-x="1024" />

    
    <glyph glyph-name="icon147" unicode="&#59025;" d="M713.19574906 656.97140531l0-57.42378656 0-489.11478c0-54.97072969-44.57233969-99.54306938-99.54978562-99.54306938L238.45586281 10.889768440000012c-54.97168875 0-99.54978562 44.57233969-99.54978562 99.54306937l0 547.49120063c0 54.977445 44.57809594 99.55458187 99.54978562 99.55458187l375.18914157 0c54.977445 0 99.54978562-44.57809594 99.54978562-99.55458187L713.19479 656.97140531 713.19574906 656.97140531 713.19574906 656.97140531 713.19574906 656.97140531zM713.19574906-31.16811561999998l0-15.37069876L828.05291656-46.53881437999996c63.42643688 0 114.85812656 51.42593344 114.85812656 114.85716657L942.91104219 527.7585318700001c0 63.43219312-51.43072969 114.85812656-114.85812656 114.85812657l-57.43529907 0 0 57.42378656c0 63.44178656-51.42593344 114.86292281-114.85237031 114.86292281L196.33658 814.90336781c-63.43219312 0-114.85812656-51.42209625-114.85812656-114.86292281l0-631.72209281c0-63.43219312 51.42593344-114.85716656 114.85812656-114.85716656l459.42962625 0C676.68866094-46.53881437999996 696.29968437-40.92949781000004 713.19574906-31.16811561999998L713.19574906-31.16811561999998 713.19574906-31.16811561999998 713.19574906-31.16811561999998zM885.48149937 110.43283874999997c0-54.97072969-44.56754344-99.54306938-99.54402937-99.54306938l-30.67903969 1e-8c9.77673094 16.90469906 15.37069875 36.50996625 15.37069875 57.42858375L770.62912906 585.18807469l15.30834094 0c54.977445 0 99.54402937-44.56178719 99.54402937-99.54402938l0-0.95455312L885.48149937 110.43283874999997 885.48149937 110.43283874999997 885.48149937 110.43283874999997 885.48149937 110.43283874999997zM253.76420375 197.53602280999996c0-15.8522925 12.85720312-14.34899156 28.70949469-14.34899156L569.62333156 183.18703125000002c15.862845 0 28.71429188-1.49850375 28.71429188 14.34899156 0 15.862845-12.85144687 43.07959219-28.71429188 43.07959219L282.47369844 240.61561500000005C266.62140687 240.61465499999997 253.76420375 213.39886780999996 253.76420375 197.53602280999996L253.76420375 197.53602280999996 253.76420375 197.53602280999996 253.76420375 197.53602280999996zM253.76420375 369.82656938c0-15.8522925 12.85720312-14.35378781 28.70949469-14.35378782L569.62333156 355.47278156000004c15.862845 0 28.71429188-1.49850375 28.71429188 14.35378781 0 15.85900781-12.85144687 43.07383594-28.71429188 43.07383594L282.47369844 412.90040531C266.62140687 412.90136531 253.76420375 385.68557719 253.76420375 369.82656938L253.76420375 369.82656938 253.76420375 369.82656938 253.76420375 369.82656938zM253.76420375 542.11423875c0-15.85325156 12.85720312-14.36050312 28.70949469-14.36050312L569.62333156 527.75373469c15.862845 0 28.71429188-1.4927475 28.71429188 14.36050312 0 15.85804781-12.85144687 43.07383594-28.71429188 43.07383594L282.47369844 585.18807469C266.62140687 585.18807469 253.76420375 557.9713274999999 253.76420375 542.11423875L253.76420375 542.11423875 253.76420375 542.11423875 253.76420375 542.11423875zM253.76420375 542.11423875"  horiz-adv-x="1024" />

    
    <glyph glyph-name="saomiao" unicode="&#58910;" d="M928 352H96c-17.664 0-32 14.336-32 32s14.336 32 32 32h832c17.696 0 32-14.336 32-32s-14.304-32-32-32z m-96-384H640c-17.696 0-32 14.304-32 32s14.304 32 32 32h192c17.664 0 32 14.336 32 32V224c0 17.696 14.304 32 32 32s32-14.304 32-32v-160c0-52.928-43.072-96-96-96z m-480 0H192c-52.928 0-96 43.072-96 96V224c0 17.696 14.336 32 32 32s32-14.304 32-32v-160c0-17.664 14.368-32 32-32h160c17.664 0 32-14.304 32-32s-14.336-32-32-32zM128 512c-17.664 0-32 14.336-32 32V704c0 52.928 43.072 96 96 96h160c17.664 0 32-14.336 32-32s-14.336-32-32-32H192c-17.632 0-32-14.368-32-32v-160c0-17.664-14.336-32-32-32z m768 0c-17.696 0-32 14.336-32 32V704c0 17.632-14.336 32-32 32H640c-17.696 0-32 14.336-32 32s14.304 32 32 32h192c52.928 0 96-43.072 96-96v-160c0-17.664-14.304-32-32-32z"  horiz-adv-x="1024" />

    
    <glyph glyph-name="guanbi" unicode="&#59048;" d="M960 384c0 249.6-198.4 448-448 448s-448-198.4-448-448 198.4-448 448-448 448 198.4 448 448zM691.2 160l-179.2 179.2-179.2-179.2c-12.8-12.8-32-12.8-44.8 0s-12.8 32 0 44.8l179.2 179.2-179.2 179.2c-12.8 12.8-12.8 32 0 44.8s32 12.8 44.8 0l179.2-179.2 179.2 179.2c12.8 12.8 32 12.8 44.8 0s12.8-32 0-44.8l-179.2-179.2 179.2-179.2c12.8-12.8 12.8-32 0-44.8s-32-12.8-44.8 0z"  horiz-adv-x="1024" />

    
    <glyph glyph-name="zhuangtai" unicode="&#59172;" d="M812.1-58H150.2c-29.8 0-54 24.2-54 54V782c0 29.8 24.2 54 54 54h661.9c29.8 0 54-24.2 54-54v-263.6c0-17.7-14.3-32-32-32s-32 14.3-32 32V772H160.2v-766.1h641.9v95.4c0 17.7 14.3 32 32 32s32-14.3 32-32v-105.4c0-29.7-24.2-53.9-54-53.9zM707.5 518.1H230.2c-17.7 0-32 14.3-32 32s14.3 32 32 32h477.3c17.7 0 32-14.3 32-32s-14.4-32-32-32zM464.5 230.2H230.2c-17.7 0-32 14.3-32 32s14.3 32 32 32h234.3c17.7 0 32-14.3 32-32s-14.3-32-32-32zM651.7 38.5c-8.4 0-16.6 3.3-22.6 9.4L501.5 175.3c-12.5 12.5-12.5 32.8 0 45.3s32.8 12.5 45.3 0L647.5 120 871 437.9c10.2 14.5 30.1 17.9 44.6 7.8 14.5-10.2 17.9-30.1 7.8-44.6L678 52.1c-5.4-7.7-14-12.7-23.4-13.5-1-0.1-2-0.1-2.9-0.1z"  horiz-adv-x="1024" />

    
    <glyph glyph-name="shezhi" unicode="&#58971;" d="M965.824 490.048c-54.61 12.318-99.028 48.084-122.846 95.912-9.555 14.872-18.593 45.537-18.593 78.314 0 19.019 3.043 37.327 8.67 54.464 0.262 0.705 0.616 2.934 0.616 5.245 0 6.847-3.099 12.971-7.971 17.045-65.473 56.76-147.274 96.293-237.455 110.737 81.532-20.66 78.892-20.179 76.139-20.179-6.531 0-12.43-2.71-16.632-7.067-33.358-35.698-80.711-57.943-133.259-57.943-0.853 0-1.706 0.006-2.556 0.018-0.193-0.003-0.575-0.005-0.956-0.005-51.924 0-98.775 21.719-131.965 56.569-4.34 5.435-10.866 8.841-18.188 8.841-3.16 0-6.172-0.634-8.915-1.783-86.887-31.534-159.68-84.767-214.106-153.252 55.752 59.35 52.653 53.227 52.653 46.379 0-2.311 0.353-4.54 1.008-6.636 5.15-15.626 8.144-33.792 8.144-52.658 0-32.685-8.988-63.27-24.627-89.42-27.106-45.848-73.86-78.644-128.658-86.807 2.92 0.229-3.954-6.971-5.444-15.987-11.442-57.818-11.442-117.786 0.078-176.090 1.735-9.079 8.761-16.13 17.687-17.881 54.101-12.065 98.503-47.572 122.478-95.138 19.643-32.454 25.467-84.102 10.235-131.59-0.613-1.938-0.966-4.167-0.966-6.479 0-6.847 3.099-12.971 7.971-17.045 65.473-56.76 147.274-96.293 237.455-110.737l-76.14 21.493c0.018-0 0.040-0 0.062-0 6.506 0 12.382 2.697 16.572 7.033 33.62 35.327 80.984 57.295 133.478 57.295 52.495 0 99.858-21.968 133.4-57.212 6.664-9.036 18.824-12.044 28.872-7.116 87.358 30.248 160.719 82.186 216.095 149.48-55.028-56.802-51.929-50.678-51.929-43.831 0 2.311-0.353 4.54-1.008 6.636-5.905 16.672-9.342 36.080-9.342 56.29 0 31.729 8.47 61.48 23.273 87.115 27.217 45.519 73.918 78.064 128.59 86.096-2.924-0.204 3.95 6.996 5.44 16.012 11.506 57.818 11.506 117.786-0.078 176.090-1.904 9.042-8.908 16.042-17.802 17.913zM922.944 320.64c-61.304-17.781-110.497-59.985-137.231-115.104-8.42-13.269-18.841-49.622-18.841-88.408 0-18.231 2.302-35.924 6.632-52.804-54.316-41.828-120.495-72.168-192.928-83.806 41.791 60.429-11.641 84.654-70.731 85.312-57.172-1.784-110.431-26.669-149.125-65.942-67.113 28.86-125.335 71.185-170.165 125.050 73.189-6.025 64.677 49.975 36.709 96.951-31.694 53.202-83.958 91.34-145.548 103.617 16.040 14.279 14.117 36.322 14.117 58.815 0 22.492 1.923 44.536 5.613 65.974 60.978 15.487 110.17 57.69 136.904 112.81 17.969 30.56 25.713 86.688 12.529 139.808 53.935 43.268 120.048 73.586 192.41 85.209-41.206-57.454 11.248-79.479 68.846-79.513 0.153-0.001 0.495-0.002 0.837-0.002 57.254 0 109.359 22.048 148.288 58.116 69.145-26.757 127.318-69.080 172.088-122.941-63.928 44.251-66.051 27.242-66.051 9.737 0-39.341 10.721-76.178 29.401-107.749 31.611-52.075 84.343-89.919 146.312-101.625-11.811-37.679-11.811-80.687-18.851-122.863l-1.28-0.64zM512 575.424c-105.984 0-192-85.568-192-191.104 0.255-105.599 85.918-191.105 191.551-191.105 0.158 0 0.315 0 0.473 0.001 106.088-0 192.040 85.568 192.040 191.104-0.025 52.846-21.539 100.662-56.277 135.189-34.762 34.548-82.7 55.915-135.629 55.915-0.033 0-0.067-0-0.1-0zM512 256.896c-70.656 0-128 57.088-128 127.424 0 70.4 57.344 127.36 128 127.36 70.72 0 128-56.96 128-127.36 0-33.792-13.44-66.176-37.44-90.112-23.194-23.059-55.164-37.312-90.463-37.312-0.012 0-0.023 0-0.035 0z"  horiz-adv-x="1024" />

    
    <glyph glyph-name="qingjie" unicode="&#58888;" d="M763.84 247.89333333000002c-11.73333333 0-21.33333333-9.6-21.33333333-21.33333333v-149.33333333c0-25.28-9.92-49.17333333-28.05333334-67.30666667-18.02666667-18.02666667-41.92-28.05333333-67.30666666-28.05333333H375.57333333c-24.96 0-48.53333333 9.81333333-66.34666666 27.62666666-17.81333333 17.81333333-27.62666667 41.38666667-27.62666667 66.34666667V281.38666666999995c0 30.82666667 6.08 60.69333333 18.02666667 88.96 11.62666667 27.30666667 28.16 51.84 49.38666666 73.06666666s45.76 37.76 73.06666667 49.38666667c28.26666667 11.94666667 58.13333333 18.02666667 88.96 18.02666667h0.74666667c30.93333333 0 61.12-6.08 89.49333333-18.13333334 27.41333333-11.62666667 52.16-28.37333333 73.38666667-49.6s37.97333333-45.97333333 49.6-73.38666666c6.72-15.89333333 11.62666667-32.32 14.61333333-49.17333334 1.81333333-10.13333333 10.66666667-17.38666667 20.90666667-17.38666666 13.22666667 0 23.36 11.94666667 21.01333333 24.96C757.97333333 455.78666667 645.65333333 553.6 511.68 553.6h-0.74666667c-149.54666667-0.10666667-272-122.56-272-272.21333333v-205.44c0-75.2 61.44-136.64 136.64-136.64h271.68c75.84 0 137.92 62.08 137.92 137.92v149.33333333c0 11.84-9.49333333 21.33333333-21.33333333 21.33333333zM665.49333333 509.97333333H354.24v106.02666667c0 37.97333333 30.82666667 68.8 68.8 68.8h173.65333333c37.97333333 0 68.8-30.82666667 68.8-68.8v-106.02666667z m-268.58666666 42.66666667H622.93333333v63.36c0 14.4-11.73333333 26.13333333-26.13333333 26.13333333H423.04c-14.4 0-26.13333333-11.73333333-26.13333333-26.13333333v-63.36zM478.4 786.0266666699999h67.09333333v-122.45333334h-67.09333333zM308.37333333 755.62666667c-1.17333333 1.92-0.74666667 4.37333333 1.06666667 5.76l85.86666667 64.64h232.10666666c11.73333333 0 21.33333333-9.6 21.33333334-21.33333334s-9.6-21.33333333-21.33333334-21.33333333H400.64l-87.25333333-29.54666667c-1.92-0.53333333-3.94666667 0.21333333-5.01333334 1.81333334zM224.74666667 711.1466666700001l37.76 16.42666666-16.42666667-37.76 16.42666667-37.76-37.76 16.42666667-37.65333334-16.42666667 16.32 37.76-16.32 37.76zM141.12 598.29333333l52.90666667 22.93333334-22.93333334-52.90666667 22.93333334-52.90666667-52.90666667 22.93333334-53.01333333-22.93333334 23.04 52.90666667-23.04 52.90666667zM375.04 327.03999999999996h204.8M375.04 348.37333333000004h204.8v-42.66666666h-204.8zM375.57333333 248.21333332999995h234.98666667M375.57333333 269.54666667000004h234.98666667v-42.66666667H375.57333333zM375.04 168.96000000000004h269.65333333M375.04 190.29333333h269.65333333v-42.66666666H375.04z"  horiz-adv-x="1024" />

    
    <glyph glyph-name="weibiaoti--" unicode="&#59447;" d="M64 384a448 448 0 1 0 896 0A448 448 0 0 0 64 384z m56 0a392 392 0 1 1 784 0 392 392 0 0 1-784 0z m196.032-27.968a27.968 27.968 0 1 0 0 56h296.384L497.024 527.424a28.032 28.032 0 1 0 39.616 39.616l158.4-158.4a27.712 27.712 0 0 0 7.232-24.64 27.52 27.52 0 0 0-7.296-24.64L536.576 200.96a28.032 28.032 0 1 0-39.616 39.616l115.392 115.392h-296.32v0.064z"  horiz-adv-x="1024" />

    
    <glyph glyph-name="guzhangkuaicha" unicode="&#58884;" d="M246.411636 665.910303c-14.584242-14.584242-40.866909-11.977697-58.709333 5.771636L155.399758 703.953455C137.557333 721.857939 134.950788 748.171636 149.566061 762.724848c14.584242 14.553212 40.897939 11.946667 58.740363-5.802666l32.271515-32.271515c17.873455-17.749333 20.48-44.06303 5.802667-58.709334zM510.510545 737.745455c-20.635152 0-37.391515 20.48-37.391515 45.676606V828.974545c0 25.227636 16.756364 45.645576 37.391515 45.645576s37.391515-20.417939 37.391516-45.645576v-45.645575c0.093091-25.134545-16.663273-45.552485-37.391516-45.552485zM777.495273 664.513939c-14.584242 14.553212-11.977697 40.866909 5.771636 58.709334l32.302546 32.271515c17.842424 17.842424 44.156121 20.44897 58.740363 5.802667 14.553212-14.584242 11.946667-40.866909-5.802666-58.709334l-32.271516-32.271515c-17.873455-17.873455-44.187152-20.48-58.740363-5.802667zM568.723394-33.481697h-113.570909a113.664 113.664 0 0 0-113.539879 113.508849v49.338181c0 39.470545-23.427879 99.576242-50.14497 128.682667-2.575515 2.792727-63.394909 70.376727-63.394909 168.742788 0 156.485818 127.317333 283.772121 283.834182 283.772121 156.516848 0 283.834182-127.286303 283.834182-283.772121 0-98.490182-60.912485-165.950061-63.425939-168.742788-26.686061-29.106424-50.14497-89.212121-50.14497-128.682667v-49.338181a113.539879 113.539879 0 0 0-113.446788-113.508849zM512 665.506909c-129.799758 0-235.395879-105.565091-235.395879-235.333818 0-79.437576 49.772606-134.671515 50.362182-135.261091 37.794909-41.146182 67.397818-117.294545 67.397818-173.211152v-51.23103c0-32.488727 26.406788-58.802424 58.802424-58.802424H570.957576a58.864485 58.864485 0 0 1 58.802424 58.802424v51.2c0 55.947636 29.633939 132.002909 67.397818 173.242182 0.403394 0.496485 50.362182 56.630303 50.362182 135.292121-0.093091 129.737697-105.689212 235.302788-235.48897 235.302788zM568.723394 61.098667h-113.570909c-15.639273 0-28.392727 12.039758-28.392727 27.089454 0 15.080727 12.753455 27.120485 28.423757 27.120485h113.570909c15.639273 0 28.392727-12.039758 28.392728-27.120485 0-15.049697-12.660364-27.089455-28.423758-27.089454zM559.352242-103.486061h-94.797575c-15.670303 0-28.423758 12.101818-28.423758 27.120485 0 14.956606 12.753455 27.120485 28.423758 27.120485h94.797575c15.670303 0 28.423758-12.070788 28.423758-27.120485s-12.660364-27.089455-28.423758-27.089454zM651.264 432.779636c-15.825455 10.457212-35.374545-0.403394-38.974061-2.699636-0.496485-0.310303-47.848727-28.299636-58.709333-34.288485-2.296242-1.303273-7.695515 0.186182-9.371151 1.489455-14.056727 16.446061-24.420848 31.992242-30.906182 46.14206-5.182061 11.264-0.620606 15.949576 0.496485 16.756364 4.375273 2.699636 52.224 31.309576 65.380848 38.074182 10.177939 5.182061 19.859394 11.574303 22.55903 22.434909 1.675636 6.764606 0.093091 13.839515-4.499394 20.417939-6.578424 9.371152-29.106424 18.338909-53.527272 21.224728a147.300848 147.300848 0 0 1-92.718546-18.711273c-73.572848-42.883879-71.183515-113.353697-70.407757-136.378182l0.124121-4.158061c0-7.788606-5.182061-15.266909-6.206061-16.756363l-9.371151-9.681455a16.849455 16.849455 0 0 1 0.403394-24.203636 17.283879 17.283879 0 0 1 24.327757 0.403394l10.488243 10.643394 0.372363 0.496485c2.420364 3.009939 14.460121 18.742303 14.460122 39.191272l-0.093091 5.275152c-0.682667 20.045576-2.575515 73.169455 53.341091 105.751273a112.391758 112.391758 0 0 0 88.032969 10.767515c-20.045576-11.170909-60.602182-35.591758-61.129697-35.871031l-0.186182-0.217212c-10.674424-7.074909-27.213576-28.516848-12.970666-59.578182 7.974788-17.470061 20.262788-35.684848 37.391515-55.730424 4.189091-4.902788 12.163879-9.18497 20.852364-11.170909 10.643394-2.389333 21.317818-1.210182 30.006303 3.599515 10.550303 5.771636 52.130909 30.409697 58.926545 34.381576v-0.217212c-2.482424-16.042667-15.980606-69.445818-85.767758-81.299394-22.403879-3.816727-40.556606-1.613576-55.233939 0.279273h-0.310303c-17.811394 2.296242-34.753939 4.375273-48.717576-7.168-14.584242-12.163879-20.045576-16.756364-17.376969-27.61697a17.190788 17.190788 0 0 1 30.037333-6.671515c0.899879 0.775758 3.196121 2.885818 9.464242 8.16097 2.389333 1.985939 13.870545 0.496485 22.248728-0.620607 16.042667-1.954909 37.981091-4.747636 65.691151-0.06206 73.479758 12.536242 106.961455 64.977455 113.850182 109.847273 2.575515 17.997576-1.396364 30.782061-11.977697 37.763878z"  horiz-adv-x="1024" />

    
    <glyph glyph-name="yufang" unicode="&#58954;" d="M366.080 540.16l30.72-15.36c5.12 5.12 10.24 10.24 15.36 17.92 5.12 5.12 10.24 12.8 15.36 20.48 2.56 5.12 2.56 7.68-2.56 7.68h-92.16c-10.24 0-17.92 2.56-20.48 5.12-2.56 5.12-5.12 10.24-5.12 17.92 0 7.68 2.56 15.36 5.12 17.92 2.56 5.12 10.24 5.12 20.48 5.12h110.080c15.36 0 25.6-5.12 33.28-12.8s12.8-17.92 12.8-30.72c0-5.12 0-10.24-2.56-15.36 0-5.12-2.56-10.24-7.68-15.36-5.12-7.68-10.24-15.36-17.92-25.6-7.68-7.68-12.8-17.92-20.48-25.6 7.68-5.12 12.8-10.24 15.36-15.36s2.56-10.24-2.56-15.36h7.68c12.8 0 23.040-2.56 30.72-10.24s10.24-17.92 10.24-33.28c0-7.68 0-17.92-2.56-28.16s-7.68-20.48-12.8-35.84c-5.12-10.24-10.24-15.36-15.36-17.92s-12.8-2.56-20.48 2.56c-10.24 5.12-15.36 10.24-15.36 15.36s0 12.8 5.12 23.040c2.56 5.12 5.12 10.24 5.12 15.36 0 2.56 2.56 7.68 2.56 10.24 2.56 5.12 0 7.68-5.12 7.68h-20.48v-163.84c0-15.36-2.56-28.16-7.68-38.4-5.12-7.68-15.36-15.36-28.16-20.48-5.12-2.56-15.36-2.56-25.6-2.56s-23.040 5.12-33.28 7.68c-10.24 5.12-17.92 7.68-20.48 12.8-2.56 5.12-2.56 10.24 0 20.48s7.68 15.36 12.8 17.92 12.8 2.56 20.48-2.56c7.68-2.56 12.8-5.12 15.36-5.12s7.68-2.56 10.24-2.56c5.12 0 5.12 2.56 5.12 10.24v163.84h-56.32c-10.24 0-15.36 2.56-20.48 5.12-5.12 5.12-5.12 10.24-5.12 17.92 0 10.24 2.56 15.36 5.12 20.48 2.56 5.12 10.24 5.12 20.48 5.12h76.8c-7.68 5.12-15.36 10.24-25.6 15.36l-30.72 15.36c-15.36 10.24-20.48 20.48-12.8 33.28 5.12 7.68 10.24 12.8 17.92 15.36 10.24 10.24 17.92 7.68 25.6 5.12zM524.8 192c-20.48-15.36-35.84-12.8-43.52 2.56-5.12 7.68-5.12 15.36-5.12 20.48 2.56 5.12 7.68 12.8 17.92 17.92 17.92 12.8 33.28 25.6 46.080 38.4s23.040 25.6 30.72 40.96c7.68 15.36 12.8 30.72 15.36 51.2s5.12 38.4 5.12 64c0 12.8 2.56 20.48 5.12 25.6s10.24 7.68 20.48 7.68 15.36-2.56 20.48-7.68c2.56-5.12 5.12-12.8 5.12-23.040 0-28.16-2.56-53.76-7.68-76.8-5.12-23.040-10.24-43.52-20.48-64-10.24-17.92-20.48-35.84-35.84-53.76-12.8-15.36-30.72-30.72-53.76-43.52zM519.68 560.64c-12.8 0-20.48 2.56-23.040 5.12-5.12 2.56-5.12 10.24-5.12 20.48s2.56 17.92 7.68 20.48c5.12 2.56 12.8 5.12 23.040 5.12h199.68c12.8 0 20.48-2.56 23.040-5.12 5.12-5.12 5.12-10.24 5.12-20.48 0-7.68-2.56-12.8-5.12-17.92-5.12-5.12-12.8-7.68-23.040-7.68h-76.8c0-5.12-2.56-7.68-2.56-12.8s-2.56-7.68-2.56-12.8h33.28c12.8 0 20.48 0 28.16-2.56 7.68 0 12.8-2.56 17.92-7.68 5.12-2.56 7.68-7.68 7.68-15.36s2.56-15.36 2.56-25.6v-166.4c0-7.68-2.56-15.36-5.12-20.48-2.56-5.12-10.24-7.68-20.48-7.68-7.68 0-15.36 2.56-20.48 7.68-5.12 5.12-7.68 12.8-7.68 20.48v151.040c0 5.12-2.56 10.24-5.12 10.24-2.56 2.56-7.68 2.56-12.8 2.56h-84.48c-7.68 0-12.8 0-15.36-2.56s-2.56-5.12-2.56-12.8v-151.040c0-7.68-2.56-15.36-5.12-20.48s-10.24-7.68-20.48-7.68-15.36 2.56-20.48 7.68c-2.56 5.12-5.12 12.8-5.12 20.48v171.52c0 10.24 0 17.92 2.56 25.6 0 7.68 2.56 12.8 7.68 15.36 5.12 2.56 10.24 5.12 17.92 7.68 7.68 0 17.92 2.56 28.16 2.56h25.6c0 5.12 2.56 7.68 2.56 12.8s2.56 7.68 2.56 12.8h-71.68v-2.56zM737.28 189.44c-7.68-5.12-12.8-7.68-17.92-7.68s-12.8 5.12-23.040 15.36-20.48 20.48-28.16 30.72c-10.24 7.68-17.92 17.92-28.16 25.6s-15.36 15.36-17.92 23.040 0 12.8 7.68 20.48c5.12 7.68 12.8 10.24 17.92 10.24 7.68 0 15.36-5.12 23.040-12.8 5.12-5.12 10.24-10.24 15.36-12.8 5.12-5.12 10.24-7.68 15.36-12.8l33.28-33.28c15.36-20.48 15.36-33.28 2.56-46.080zM901.12 768l-381.44 76.8h-15.36l-381.44-76.8c-12.8-2.56-20.48-12.8-20.48-25.6v-332.8c0-253.44 202.24-435.2 404.48-486.4h10.24c199.68 51.2 404.48 232.96 404.48 486.4v332.8c0 12.8-7.68 23.040-20.48 25.6zM870.4 409.6c0-222.72-179.2-386.56-358.4-435.2-179.2 48.64-358.4 209.92-358.4 435.2v312.32l358.4 71.68 358.4-71.68v-312.32z"  horiz-adv-x="1024" />

    
    <glyph glyph-name="wenzhangsousuo" unicode="&#58965;" d="M836.466 811.047h-659.632c-26.212 0-47.164-21.093-47.164-47.115v-753.976c0-26.15 21.116-47.115 47.164-47.115h524.312v35.342h-524.307c-6.627 0-11.828 5.166-11.828 11.769v753.981c0 6.604 5.202 11.769 11.828 11.769h659.621c6.523 0 11.828-5.35 11.828-11.919v-402.715h35.342v402.71c0 26.118-21.115 47.264-47.162 47.264zM731.101 540.092h-448.283c-9.757 0-17.671 7.917-17.671 17.671s7.917 17.671 17.671 17.671h448.283c9.757 0 17.671-7.917 17.671-17.671s-7.917-17.671-17.671-17.671zM731.101 375.164h-448.283c-9.757 0-17.671 7.917-17.671 17.671s7.917 17.671 17.671 17.671h448.283c9.757 0 17.671-7.917 17.671-17.671s-7.917-17.671-17.671-17.671zM565.609 186.675h-282.79c-9.757 0-17.671 7.917-17.671 17.671s7.917 17.671 17.671 17.671h282.794c9.757 0 17.671-7.917 17.671-17.671s-7.917-17.671-17.672-17.671zM812.946-7.706c-87.7 0-159.035 71.342-159.035 159.035s71.342 159.035 159.035 159.035 159.037-71.342 159.037-159.035-71.343-159.035-159.037-159.035zM812.946 275.030c-68.21 0-123.696-55.487-123.696-123.696s55.487-123.696 123.696-123.696 123.696 55.487 123.696 123.696-55.487 123.696-123.696 123.696zM989.655-43.047c-0.004 0-0.008 0-0.023 0-4.872 0-9.284 1.981-12.473 5.177l-70.682 70.682c-6.905 6.905-6.905 18.085 0 24.989s18.085 6.905 24.989 0l70.682-70.682c6.905-6.905 6.905-18.085 0-24.989-3.19-3.198-7.6-5.177-12.473-5.177-0.005 0-0.010 0-0.025 0z"  horiz-adv-x="1024" />

    
    <glyph glyph-name="weixiu" unicode="&#58886;" d="M828.387 896.079h-13.639c-56.095 0-103.724-36.901-120-87.676h-473.406c-10.034 0-19.399-5.063-24.9-13.479l-172.113-263.442c-5.966-9.154-6.45-20.81-1.249-30.403 5.178-9.596 15.216-15.584 26.128-15.584h281.477v-485.754c0-66.912 54.45-121.341 121.363-121.341h45.824c66.915 0 121.363 54.427 121.363 121.341v485.754h75.514c16.278-50.798 63.908-87.698 120-87.698h13.639c69.479 0 126.009 56.531 126.009 126.011v246.288c0.001 69.457-56.531 125.987-126.009 125.987zM237.41 748.96h451.349v-204.020h-584.62l133.27 204.020zM559.788-0.262c0-34.127-27.769-61.897-61.921-61.897h-45.824c-34.127 0-61.897 27.769-61.897 61.897v485.754h169.639v-485.754zM894.929 523.802c0-36.717-29.847-66.563-66.541-66.563h-13.639c-36.67 0-66.543 29.85-66.543 66.565v246.288c0 36.67 29.872 66.543 66.543 66.543h13.639c36.694 0 66.541-29.873 66.541-66.542v-246.286z"  horiz-adv-x="1024" />

    
    <glyph glyph-name="xunjian" unicode="&#59013;" d="M279.04 691.2h28.16c15.36 0 25.6 10.24 25.6 25.6s-10.24 25.6-25.6 25.6h-28.16c-10.24 43.52-51.2 76.8-99.84 76.8-56.32 0-102.4-46.08-102.4-102.4s46.08-102.4 102.4-102.4c48.64 0 87.04 33.28 99.84 76.8z m-151.04 25.6c0 28.16 23.04 51.2 51.2 51.2s51.2-23.04 51.2-51.2-23.04-51.2-51.2-51.2-51.2 23.04-51.2 51.2zM844.8 153.6c-48.64 0-87.04-33.28-99.84-76.8h-28.16c-15.36 0-25.6-10.24-25.6-25.6s10.24-25.6 25.6-25.6h28.16c10.24-43.52 51.2-76.8 99.84-76.8 56.32 0 102.4 46.08 102.4 102.4s-46.08 102.4-102.4 102.4z m0-153.6c-28.16 0-51.2 23.04-51.2 51.2s23.04 51.2 51.2 51.2 51.2-23.04 51.2-51.2-23.04-51.2-51.2-51.2zM409.6 691.2h99.84c15.36 0 25.6 10.24 25.6 25.6s-10.24 25.6-25.6 25.6h-99.84c-15.36 0-25.6-10.24-25.6-25.6s10.24-25.6 25.6-25.6zM760.32 381.44c5.12 0 7.68 0 12.8 2.56 33.28 20.48 61.44 48.64 76.8 84.48 5.12 12.8 0 28.16-12.8 33.28-12.8 5.12-28.16 0-33.28-12.8-12.8-25.6-33.28-46.08-56.32-61.44-12.8-7.68-15.36-23.04-10.24-35.84 7.68-7.68 15.36-10.24 23.04-10.24zM816.64 573.44c2.56-12.8 12.8-20.48 25.6-20.48h5.12c12.8 2.56 23.04 15.36 20.48 28.16-5.12 38.4-23.04 74.24-51.2 102.4-10.24 10.24-25.6 10.24-35.84 0-10.24-10.24-10.24-25.6 0-35.84 17.92-20.48 33.28-46.08 35.84-74.24zM609.28 691.2h69.12c10.24 0 17.92 0 28.16-2.56h5.12c12.8 0 23.04 7.68 25.6 20.48 2.56 12.8-5.12 28.16-20.48 30.72-12.8 2.56-25.6 2.56-38.4 2.56h-69.12c-15.36 0-25.6-10.24-25.6-25.6s12.8-25.6 25.6-25.6zM614.4 76.8h-99.84c-15.36 0-25.6-10.24-25.6-25.6s10.24-25.6 25.6-25.6h99.84c15.36 0 25.6 10.24 25.6 25.6s-12.8 25.6-25.6 25.6zM463.36 409.6h-99.84c-15.36 0-25.6-10.24-25.6-25.6s10.24-25.6 25.6-25.6h99.84c15.36 0 25.6 10.24 25.6 25.6s-12.8 25.6-25.6 25.6zM207.36 197.12c-2.56 12.8-15.36 23.04-28.16 20.48-12.8-2.56-23.04-15.36-20.48-28.16 5.12-38.4 23.04-74.24 51.2-102.4 5.12-5.12 12.8-7.68 17.92-7.68 5.12 0 12.8 2.56 17.92 7.68 10.24 10.24 10.24 25.6 0 35.84-23.04 17.92-35.84 46.08-38.4 74.24zM665.6 409.6h-99.84c-15.36 0-25.6-10.24-25.6-25.6s10.24-25.6 25.6-25.6h99.84c15.36 0 25.6 10.24 25.6 25.6s-12.8 25.6-25.6 25.6zM286.72 376.32c-7.68 12.8-23.04 17.92-35.84 10.24-33.28-20.48-61.44-48.64-79.36-84.48-5.12-12.8 0-28.16 12.8-33.28 2.56-2.56 7.68-2.56 10.24-2.56 10.24 0 17.92 5.12 23.04 15.36 12.8 25.6 33.28 46.08 58.88 61.44 12.8 5.12 17.92 20.48 10.24 33.28zM412.16 76.8h-66.56c-10.24 0-20.48 0-28.16 2.56-12.8 2.56-28.16-5.12-30.72-20.48-2.56-12.8 5.12-28.16 20.48-30.72 12.8-2.56 25.6-5.12 38.4-5.12h66.56c15.36 0 25.6 10.24 25.6 25.6s-10.24 28.16-25.6 28.16z"  horiz-adv-x="1024" />

    
    <glyph glyph-name="chexiao" unicode="&#58897;" d="M955.73226667 322.11733332999995v6.62186667c0 167.696-119.97866667 294.1952-279.07413334 294.1952h-457.69386666l113.18613333 111.95626667c13.4144 13.24373333 13.51786667 34.85013333 0.27306667 48.26453333-13.2768 13.4144-34.85013333 13.51786667-48.26453334 0.27306667l-170.93866666-169.0624c-6.75733333-6.65493333-10.1376-15.4624-10.1376-24.26773334 0-8.6688 3.30986667-17.33973333 9.86453333-23.9968 0.0352-0.0352 0.06826667-0.0352 0.1024-0.06826666 0.0352-0.0352 0.0352-0.06826667 0.06826667-0.1024l169.50613333-169.98293334c13.312-13.3472 34.91733333-13.38026667 48.26453333-0.06826666 13.4144 13.312 13.3472 34.91733333 0.06826667 48.26453333l-110.1824 110.52373333h455.8848c120.18133333 0 210.80746667-97.14453333 210.80746667-225.92853333v-6.62186667c0-124.34773333-86.69653333-211.184-210.8064-211.184h-540.12586667c-18.87573333 0-34.1344-15.25653333-34.1344-34.1344s15.25653333-34.1344 34.1344-34.1344h540.12586667c161.72373333 0 279.07413333 117.52 279.07413333 279.45066667z"  horiz-adv-x="1024" />

    
    <glyph glyph-name="icon-test" unicode="&#58893;" d="M993.491037-31.632462000000032c0-51.332108-215.459868-92.943096-481.239467-92.943097S31.008269-82.960735 31.008269-31.632462000000032s215.459868 92.943096 481.239467 92.943096 481.243301-41.610989 481.243301-92.943096M967.291952 64.70439799999997a5.2843 5.2843 0 0 0-5.234449 5.299639v77.500515c0 2.910583 2.354543 5.299639 5.234449 5.299639s5.234448-2.389056 5.234448-5.299639v-77.500515c0-2.910583-2.350708-5.299639-5.234448-5.299639M924.561212 104.65110000000004c0 2.918253 2.358378 5.299639 5.234449 5.29964h76.53799c2.876071 0 5.234448-2.381386 5.234448-5.29964 0-2.918253-2.358378-5.299639-5.234448-5.299639h-76.53799a5.280466 5.280466 0 0 0-5.234449 5.299639M54.791455 153.168494a5.2843 5.2843 0 0 0-5.234448 5.299639v77.500515c0 2.910583 2.354543 5.299639 5.234448 5.299639s5.234448-2.389056 5.234449-5.299639v-77.500515c0-2.910583-2.354543-5.299639-5.234449-5.299639M11.286095 197.21839c0 2.918253 2.358378 5.299639 5.234448 5.29964h76.541825c2.876071 0 5.234448-2.381386 5.234448-5.29964 0-2.918253-2.358378-5.299639-5.234448-5.299639H16.520543a5.2843 5.2843 0 0 0-5.234448 5.299639M786.728406 892.046362l34.597212-63.208362 63.269718-34.562699-63.269718-34.574203-34.597212-63.200692-34.601046 63.200692-63.265883 34.574203 63.265883 34.562699zM786.728406 692.50842l-36.012238 65.777652-65.854346 35.989229 65.854346 35.977726 36.012238 65.785321 36.012239-65.785321 65.858181-35.977726-65.858181-35.989229-36.012239-65.777652z m-93.867273 101.766881l60.677419-33.159176 33.18602-60.619898 33.186019 60.619898 60.681255 33.159176-60.681255 33.151507-33.186019 60.627568-33.18602-60.627568-60.677419-33.151507zM931.49446 382.09220700000003l16.853773-30.754782 30.823807-16.82693-30.823807-16.819261-16.853773-30.754781-16.853774 30.754781-30.819972 16.819261 30.819972 16.82693zM931.49446 282.948302l-18.264966 33.324071-33.41227 18.238122 33.41227 18.241957 18.264966 33.327906 18.2688-33.327906 33.412271-18.241957-33.412271-18.238122-18.2688-33.324071z m-43.670256 51.562193l28.227674-15.408069 15.438747-28.181657 15.442582 28.181657 0.494684 0.264599 27.73299 15.139635-28.227674 15.411904-15.442582 28.181657-15.438747-28.181657-0.494684-0.264599-27.73299-15.14347zM391.690527 655.150181l13.483019-24.281705 24.657511-13.283611-24.657511-13.279777-13.483019-24.274035-13.483019 24.274035-24.657512 13.279777 24.657512 13.283611zM391.686692 576.077414l-14.886541 26.808813-27.303497 14.698638 27.303497 14.702472 14.886541 26.808813 14.886541-26.804978 27.299662-14.706307-27.303496-14.698638-14.882707-26.804978z m-34.094858 41.507451l22.019197-11.857081 12.075661-21.754597 12.079497 21.754597 22.019196 11.857081-22.019196 11.860915-12.079497 21.754597-12.079496-21.754597-22.015362-11.860915zM408.39858 402.953305a2.300856 2.300856 0 0 0-2.105284 3.225034c10.568601 24.109141 33.692208 42.523662 34.673907 43.298284a2.300856 2.300856 0 1 0 2.849227-3.61618c-0.230086-0.180234-23.211807-18.495051-33.308732-41.530459a2.304691 2.304691 0 0 0-2.109118-1.376679zM450.366201 418.161966a2.297022 2.297022 0 0 0-1.959562 1.092907c-12.071827 19.584123-33.926128 14.924889-34.140875 14.867367a2.304691 2.304691 0 0 0-1.008543 4.490505c0.253094 0.053687 25.297917 5.403178 39.068543-16.941973a2.300856 2.300856 0 0 0-1.959563-3.508806zM606.605859 421.103228a2.300856 2.300856 0 0 0-1.779329 3.7619c0.567545 0.690257 14.200119 16.811591 41.231348 14.085076 1.265471-0.130382 2.181979-1.257802 2.055431-2.523272s-1.299984-2.16664-2.519437-2.059267c-24.657512 2.492594-37.085971-12.278904-37.208684-12.424625a2.304691 2.304691 0 0 0-1.779329-0.839812zM651.307665 400.30732a2.300856 2.300856 0 0 0-2.235665 1.752486c-4.981354 20.216859-32.940595 43.608899-33.220533 43.84282a2.300856 2.300856 0 0 0 2.937427 3.543318c1.196445-0.993203 29.40878-24.592321 34.754437-46.285562a2.300856 2.300856 0 0 0-2.235666-2.853062zM449.093061 304.399954a1.92505 1.92505 0 0 0-1.357506 0.559875c-14.146432 14.157937-15.438747 35.866517-15.488598 36.783025a1.91738 1.91738 0 0 0 1.813842 2.013249 1.894372 1.894372 0 0 0 2.017084-1.813842c0.011504-0.210912 1.28081-21.171714 14.368848-34.275091a1.91738 1.91738 0 0 0-1.35367-3.267216zM456.382941 324.678168a2.300856 2.300856 0 0 0-0.920343 4.406141c0.674918 0.295277 68.116855 28.967783 152.611974 8.045328a2.300856 2.300856 0 0 0 1.679625-2.787871 2.277848 2.277848 0 0 0-2.787871-1.679626c-82.919032 20.531309-149.011134-7.516131-149.666877-7.796068a2.377552 2.377552 0 0 0-0.916508-0.187904zM550.349919 340.718973s-5.729133-40.241979 10.664469-53.909067 41.691519 2.185814 47.232749 46.047807l-57.897218 7.86126zM573.554056 280.12975300000005c-4.916163 0-9.678936 1.802338-13.766791 5.207605-17.018668 14.18478-11.577143 53.962753-11.335553 55.650048l0.268433 1.886702 61.666788-8.371282-0.237755-1.882868c-3.190521-25.282578-16.006291-52.490205-36.595122-52.490205z m-21.528347 58.426415c-0.855152-7.995476-3.20586-39.083882 10.219637-50.273714 3.435946-2.864566 7.243863-4.317941 11.30871-4.317941 12.562676 0 27.936232 14.802177 32.537945 47.251923l-54.066292 7.339732zM793.554281 568.377215H273.829155c-37.147327 0-67.369077-29.477806-67.369077-65.716295v-319.186312c0-36.234654 30.22175-65.71246 67.369077-65.712461h173.239152v-45.154307L384.734271 20.49344099999996a13.851156 13.851156 0 0 1-4.145376-15.576798c2.093779-5.52589 7.500792-9.195756 13.544375-9.195757h279.109227c6.043583 0 11.450596 3.666031 13.544375 9.195757a13.851156 13.851156 0 0 1-4.145377 15.576798l-62.334036 52.114399v45.154307h173.239152c37.147327 0 67.369077 29.477806 67.369077 65.712461v319.186312c0.00767 36.234654-30.21408 65.716295-67.361407 65.716295z m-159.33431-544.493846h-201.060341l37.74555 31.552412a13.924016 13.924016 0 0 1 4.145376 5.997566h117.270819a13.958529 13.958529 0 0 1 4.145376-5.997566l37.75322-31.552412z m-158.275915 46.937472v46.941306h115.491489v-46.941306h-115.491489z m356.107388 112.653767c0-20.738386-17.23725-37.549977-38.497163-37.549978H273.829155c-21.259914 0-38.497163 16.815426-38.497163 37.549978v37.553812h596.719452v-37.553812z m0 46.941306H235.331992v272.245006c0 20.742221 17.23725 37.549977 38.497163 37.549977h519.725126c21.259914 0 38.497163-16.807756 38.497163-37.549977v-272.245006z m-298.359726-65.716295c10.610783 0 19.250499 8.424969 19.250499 18.774989s-8.639716 18.778823-19.250499 18.778823-19.250499-8.424969-19.250499-18.778823c0-10.350019 8.639716-18.774989 19.250499-18.774989z m0 28.162483c5.311144 0 9.62525-4.210567 9.625249-9.391329 0-5.176927-4.314106-9.387494-9.625249-9.387494s-9.62525 4.210567-9.62525 9.387494c0 5.184597 4.314106 9.391329 9.62525 9.391329zM673.246331-6.19649400000003h-279.109227c-6.810535 0-12.972996 4.191394-15.339043 10.434384a15.814553 15.814553 0 0 0 4.709087 17.724264l61.643779 51.539185v42.343428H273.829155c-38.205721 0-69.286457 30.336792-69.286457 67.629841v319.186312c0 37.293048 31.080736 67.633675 69.286457 67.633675h519.725126c38.205721 0 69.286457-30.340627 69.286457-67.633675v-319.186312c0-37.293048-31.080736-67.629841-69.286457-67.629841h-171.325607v-42.343428l61.643779-51.539185a15.829892 15.829892 0 0 0 4.712921-17.728099c-2.366047-6.242991-8.532343-10.430549-15.339043-10.430549zM273.829155 566.459834c-36.092768 0-65.451697-28.61882-65.451697-63.798914v-319.186312c0-35.17626 29.362763-63.79508 65.451697-63.79508h175.156532v-47.969022l-63.020458-52.693448a11.979793 11.979793 0 0 1-3.581666-13.421663c1.802338-4.758938 6.526763-7.957129 11.749707-7.957128h279.109227c5.222944 0 9.947369 3.19819 11.749707 7.957128a11.975958 11.975958 0 0 1-3.581667 13.421663l-63.024293 52.693448v47.969022h175.160367c36.088933 0 65.451697 28.61882 65.451697 63.79508v319.186312c0 35.17626-29.362763 63.798915-65.451697 63.798914H273.829155z m365.675116-544.49768H427.87533l41.798892 34.94234c1.614434 1.353671 2.818549 3.098487 3.573997 5.180762l0.460171 1.265471h119.962821l0.456336-1.261636c0.759283-2.08611 1.963398-3.830926 3.581667-5.188432l41.795057-34.938505z m-201.060341 3.834761h190.491741l-33.688373 28.166318a15.63432 15.63432 0 0 0-4.210568 5.552733h-114.697694a15.576798 15.576798 0 0 0-4.202898-5.548899l-33.692208-28.170152z m154.908996 43.106546h-119.326251v50.776067h119.326251v-50.776067z m-115.49149 3.83476h111.656729v43.106546h-111.656729v-43.106546z m315.692845 71.269029H273.829155c-22.283795 0-40.414544 17.70509-40.414544 39.467358v39.471192h600.554213v-39.471192c0-21.762267-18.126914-39.467358-40.414543-39.467358zM237.249372 219.11104v-35.636432c0-19.649314 16.408941-35.632597 36.579783-35.632597h519.725126c20.170842 0 36.579783 15.983283 36.579783 35.632597v35.636432H237.249372z m296.438511-56.328801c-11.673012 0-21.167879 9.283956-21.167879 20.692369 0 11.412248 9.494868 20.692369 21.167879 20.692369s21.167879-9.283956 21.167879-20.692369-9.494868-20.692369-21.167879-20.692369z m0 37.549977c-9.556224 0-17.333119-7.565983-17.333119-16.857608s7.77306-16.857608 17.333119-16.857608 17.333119 7.562148 17.333119 16.857608-7.77306 16.857608-17.333119 16.857608z m0-28.162483c-6.361868 0-11.54263 5.069554-11.54263 11.30104 0 6.235321 5.180762 11.308709 11.54263 11.30871s11.54263-5.073388 11.54263-11.30871c0-6.227651-5.176927-11.30104-11.54263-11.30104z m0 18.778824c-4.248915 0-7.707869-3.351581-7.707869-7.473949 0-4.114698 3.455119-7.466279 7.707869-7.466279s7.707869 3.351581 7.707869 7.466279c0 4.122368-3.455119 7.473949-7.707869 7.473949z m300.280941 37.549977H233.414611v274.162386c0 21.762267 18.130749 39.467358 40.414544 39.467357h519.725126c22.28763 0 40.414544-17.70509 40.414543-39.467357v-274.162386z m-596.719452 3.834761h592.884692v270.327625c0 19.649314-16.408941 35.632597-36.579783 35.632596H273.829155c-20.170842 0-36.579783-15.983283-36.579783-35.632596v-270.327625zM271.558977-60.84567000000004l-82.658268-24.251027-10.944408 37.316057 53.828537 122.501433 39.544053 11.600151 29.447128-100.367193 20.496796 6.012905 10.327011-35.203104-20.496796-6.012905 8.954166-30.524696-39.544053-11.600151-8.954166 30.52853z m-10.327011 35.199269l-15.082114 51.389629-28.595811-64.205399 43.677925 12.81577zM279.213159-93.74791700000003l-8.954166 30.524696-82.658268-24.251027-11.684516 39.827825 0.283772 0.640405 54.185169 123.318236 42.243725 12.390112 29.447128-100.367193 20.496796 6.012905 11.408413-38.880639-20.496796-6.012905 8.954166-30.524696-43.225423-12.677719z m-6.354198 35.279799l8.954166-30.524696 35.866517 10.522584-8.954166 30.524696 20.496796 6.012904-9.249443 31.525569-20.496796-6.012905-29.447128 100.367193-36.848216-10.81019-53.188132-121.044224 10.208133-34.808123 82.658269 24.247192z m-58.740866 16.999495l32.403729 72.76075 17.091528-58.238512-49.495257-14.522238z m31.66362 61.666787l-24.787894-55.653883 37.860593 11.105468-13.072699 44.548415zM537.388427-72.03550099999995l-77.450663 37.703367 17.018668 34.965349 122.267512 54.365403 37.051459-18.03488-45.779374-94.047507 19.208317-9.349147-16.056144-32.986612-19.212151 9.349147-13.920182-28.599646-37.055293 18.03488 13.927851 28.599646z m16.056144 32.982777l23.438057 48.16076-64.362624-28.235343 40.924567-19.925417zM561.405534-121.23164699999995l-40.502743 19.714505 13.924016 28.599646-77.454498 37.703367 18.165262 37.316057 123.720886 55.013478 39.574731-19.265838-45.779374-94.047508 19.208317-9.349146-17.731934-36.430227-19.212151 9.349146-13.912512-28.60348z m-35.379503 21.478495l33.611678-16.35909 13.920182 28.599646 19.212151-9.349147 14.376518 29.539162-19.208316 9.349147 45.779373 94.047508-34.528185 16.803921-120.810303-53.717328-15.87591-32.614641 77.450663-37.703367-13.927851-28.595811z m28.300535 58.138808l-46.373762 22.575236 72.937149 32.001079-26.563387-54.576315z m-37.243197 22.395002l35.475372-17.271762 20.316562 41.745206-55.791934-24.473444zM322.292862-15.135320999999976c-1.668121 32.304025 2.983444 55.209051 13.954694 68.722747 10.963581 13.502193 28.354221 20.872603 52.160416 22.103561 11.435257 0.586718 20.899446-0.341294 28.388734-2.784036 7.485453-2.446577 13.667087-5.801993 18.537233-10.089256 4.873981-4.275758 8.766263-8.846793 11.692186-13.69393s5.36483-10.553262 7.332062-17.118372c3.823256-12.512824 6.0896-25.64688 6.799031-39.402167 1.587591-30.842981-2.469586-53.678981-12.163861-68.511836-9.69811-14.840524-27.299662-22.91653-52.80849-24.228018-14.299823-0.736274-25.969 0.947186-35.019036 5.054214-9.042366 4.103194-16.616018 10.419045-22.713288 18.939884-4.417644 6.043583-8.049163 14.441709-10.886885 25.182874-2.837723 10.745-4.594043 22.678775-5.272796 35.824335z m46.845437 2.297021c1.115915-21.647224 3.788744-36.326689 8.026154-44.053731 4.233576-7.727043 9.981882-11.400744 17.248754-11.021103 4.789616 0.24159 8.862132 2.139797 12.202209 5.683116 3.343911 3.539484 5.660107 8.988679 6.948586 16.339915 1.284645 7.351236 1.533904 18.717467 0.740109 34.098693-1.161933 22.567567-3.857769 37.642012-8.079841 45.207995-4.229741 7.577487-10.165951 11.162989-17.816298 10.768008-7.807573-0.398815-13.245264-4.6554-16.316907-12.758249-3.075478-8.102849-4.057177-22.859009-2.952766-44.264644zM389.838338-102.22657300000003c-11.665342 0-21.578199 1.817677-29.462467 5.395508-9.314634 4.225906-17.214241 10.810191-23.48024 19.572619-4.528852 6.193139-8.294588 14.882707-11.182163 25.80794-2.860732 10.810191-4.6554 22.99706-5.337987 36.215481-1.68346 32.641484 3.156008 56.198419 14.380353 70.030401 11.270362 13.881834 29.289903 21.55519 53.548599 22.805322 11.653838 0.598223 21.39413-0.368137 29.082826-2.872236 7.723208-2.523273 14.18478-6.047418 19.212151-10.472731 4.985189-4.375462 9.046201-9.1344 12.064158-14.142598 2.991113-4.958346 5.522055-10.863877 7.527635-17.555535 3.846265-12.585685 6.162461-25.999678 6.879561-39.858503 1.599095-31.107579-2.596133-54.545637-12.474477-69.658429-10.004891-15.308365-28.281361-23.752508-54.311717-25.094675a119.951317 119.951317 0 0 0-6.446232-0.172564z m4.996693 176.168909c-2.036258 0-4.149211-0.057521-6.33119-0.168729-23.127442-1.196445-40.211301-8.390457-50.768398-21.397965-10.610783-13.068865-15.162644-35.74764-13.525201-67.415094 0.667248-12.953822 2.423569-24.872258 5.215275-35.429355 2.764863-10.465062 6.32352-18.721302 10.580104-24.542469 5.878688-8.221727 13.264437-14.380353 21.957841-18.326322 8.727915-3.961308 20.213024-5.594916 34.125536-4.885485 24.741876 1.276975 42.002135 9.138235 51.301429 23.365198 9.425842 14.4187 13.413993 37.085971 11.853246 67.365242-0.701761 13.54054-2.960435 26.640083-6.718501 38.938161-1.91738 6.396381-4.314106 12.006636-7.140325 16.692713-2.814714 4.670739-6.622632 9.126731-11.316379 13.241429-4.632391 4.080185-10.645296 7.347402-17.86615 9.70578-5.821167 1.894372-13.007508 2.856897-21.367287 2.856896z m-1.430366-143.799693c-7.516131 0-13.544375 4.053342-17.923672 12.044983-4.41381 8.060667-7.117316 22.740131-8.260074 44.878205-1.12742 21.869641-0.122712 36.602791 3.067808 45.035431 3.351581 8.846793 9.414338 13.552045 18.011871 13.993042 8.390457 0.460171 15.005419-3.524145 19.587958-11.742038 4.41381-7.903442 7.13649-22.962547 8.321431-46.047807 0.79763-15.431077 0.536867-27.050402-0.766952-34.524351-1.349836-7.7002-3.853935-13.525201-7.443271-17.329284-3.673701-3.899952-8.214058-6.012905-13.498357-6.281338a26.164573 26.164573 0 0 0-1.096742-0.026843z m-3.873108 112.151413a18.713632 18.713632 0 0 1-1.031551-0.026844c-7.036786-0.364302-11.822567-4.130037-14.621943-11.523456-2.960435-7.819077-3.911456-22.448689-2.826218-43.486187 1.096742-21.248409 3.715883-35.793657 7.792233-43.229258 3.888447-7.098142 8.904314-10.346185 15.469425-10.027899 4.321775 0.222416 7.888103 1.882868 10.90606 5.084893 3.063974 3.244208 5.234448 8.40963 6.453902 15.354382 1.257802 7.194011 1.499391 18.51806 0.717101 33.669199-1.138924 22.164917-3.777239 37.097476-7.838251 44.368182-3.692875 6.607293-8.605203 9.816988-15.020758 9.816988z"  horiz-adv-x="1024" />

    
    <glyph glyph-name="donghuanshebeiguanli" unicode="&#58924;" d="M999.685 96H29.02V776.535h966.4V96h4.265zM86.62 153.6h849.065V718.935H86.62V153.6z m920.315-162.13H17.07c-8.535 0-17.065 12.8-17.065 29.86 0 14.94 6.4 27.74 17.065 27.74h989.865c8.54 0 17.07-12.8 17.07-27.74 0-17.06-6.4-29.86-17.07-29.86zM581.555 275.2c-2.14 0-25.6 21.33-25.6 23.47L342.62 448 178.355 294.4c-4.265-2.13-8.535 61.87-10.665 66.13-2.135 2.14-2.135 6.4 2.135 10.67L338.36 529.065c2.135 2.135 6.4 2.135 10.665 0L583.685 358.4l260.27 206.935c4.26 2.135 8.53-19.2 10.66-23.465 2.14-4.27 23.47-29.87 21.34-34.135L609.285 298.67c-2.13-2.14-25.6-23.47-27.73-23.47z m-234.67 160c-27.735 0-49.065 23.465-49.065 49.065 0 27.735 23.465 49.065 49.065 49.065s49.065-23.465 49.065-49.065-21.33-49.065-49.065-49.065zM178.35 292.27c-25.6 0-49.065 21.33-49.065 49.06 0 27.74 21.335 49.07 49.065 49.07 27.735 0 49.065-21.33 49.065-49.07 0.005-27.73-23.465-49.06-49.065-49.06z m405.335-23.47c-25.6 0-49.07 21.33-49.07 49.07 0 27.73 21.34 49.06 49.07 49.06s49.07-21.33 49.07-49.06c0-27.74-23.47-49.07-49.07-49.07z m266.67 213.335c-27.74 0-49.07 21.335-49.07 49.065s21.33 49.065 49.07 49.065c27.73 0 49.06-21.335 49.06-49.065s-21.33-49.065-49.06-49.065z"  horiz-adv-x="1024" />

    
    <glyph glyph-name="jieshu" unicode="&#59104;" d="M735.3 352.1H288.8c-15.9 0-31.9 12.8-31.9 31.9 0 15.9 12.8 31.9 31.9 31.9h446.5c15.9 0 31.9-12.8 31.9-31.9 0-19.1-12.8-31.9-31.9-31.9zM512 830.5C266.5 830.5 65.5 629.6 65.5 384s201-446.5 446.5-446.5S958.5 138.4 958.5 384 757.6 830.5 512 830.5z m0-829.2c-210.5 0-382.7 172.2-382.7 382.7S301.5 766.7 512 766.7 894.7 594.5 894.7 384 722.5 1.3 512 1.3z"  horiz-adv-x="1024" />

    
    <glyph glyph-name="jieshu1" unicode="&#58892;" d="M735.40053333 701.73333333a399.65546667 399.65546667 0 0 1-52.93333333 29.2c-16.93333333 7.7664-37.33333333 0.36693333-45.2-16.8-7.86666667-17.1328-0.3328-37.39946667 16.8-45.2672 15.26613333-7.0336 30-15.13386667 44.06613333-24.29973334C795.33333333 581.2330666600001 853.33333333 474.26666666 853.33333333 358.39999998999997c0-188.20053333-153.1328-341.33333333-341.33333333-341.33333333S170.66666667 170.19946665999998 170.66666667 358.39999998999997c0 115.79946667 58 222.76693333 155.13386666 286.13333334a330.57813333 330.57813333 0 0 0 42.0672 23.3664c17.06666667 7.96693333 24.4672 28.29973333 16.4672 45.3664-8 17.1328-28.4 24.36693333-45.39946666 16.50026666a423.12213333 423.12213333 0 0 1-50.46613334-28.03306666C171.93386667 625.66613333 102.4 497.33333333 102.4 358.39999998999997c0-225.86666667 183.73333333-409.6 409.6-409.6s409.6 183.73333333 409.6 409.6c0 139.0336-69.6 267.40053333-186.19946667 343.33333334zM512 358.39999998999997c18.8672 0 34.13333333 15.26613333 34.13333333 34.13333334V802.13333333c0 18.8672-15.26613333 34.13333333-34.13333333 34.13333333s-34.13333333-15.26613333-34.13333333-34.13333333v-409.6c0-18.8672 15.26613333-34.13333333 34.13333333-34.13333334z"  horiz-adv-x="1024" />

    
    <glyph glyph-name="zhongzuo" unicode="&#58898;" d="M842 18H362c-150 0-270 120-270 270s120 270 270 270h480c18 0 30-12 30-30s-12-30-30-30H362c-120 0-210-96-210-210s96-210 210-210h480c18 0 30-12 30-30s-18-30-30-30zM722 318c-6 0-18 0-24 6-12 12-12 30 0 42l186 186c12 12 30 12 42 0s12-30 0-42L740 324c-6 0-12-6-18-6zM902 504c-6 0-18 0-24 6L692 696c-12 12-12 30 0 42s30 12 42 0l186-186c12-12 12-30 0-42 0 0-6-6-18-6z"  horiz-adv-x="1024" />

    
    <glyph glyph-name="shaixuan" unicode="&#58977;" d="M124.928 691.712c1.536-2.048 3.584-4.608 6.144-7.168l7.68-7.68-3.072 3.072c12.8-11.776 121.856-103.936 131.072-111.104l13.312-11.264c119.296-102.4 148.48-131.072 148.48-173.056 0-24.576 0-45.568-0.512-78.336-1.536-101.376 0-129.536 7.168-143.36 3.072-6.144 42.496-44.032 96.256-90.624l15.36-12.8c29.184-24.576 50.688-48.128 50.688-45.568V55.80799999999999v117.76c0 124.416 0.512 196.608 3.072 217.088 1.536 11.776 4.608 23.04 9.216 33.792 13.824 31.232 36.352 52.736 93.696 99.328 0 0 58.368 47.104 79.36 64 35.84 30.72 72.192 61.44 108.032 93.184l-4.096-3.584c16.896 17.92 23.04 31.232 22.528 47.616 0.512 29.696-28.672 56.32-50.688 56.32h-681.472c-36.864 0-62.976-23.552-62.976-56.832 0-13.312 3.584-23.04 10.752-32.768z m733.696 146.432c44.544 0 108.544-43.52 107.52-113.664 1.024-31.744-12.288-58.88-37.888-86.016-192-168.448-266.752-202.24-272.384-253.44-4.608-40.448-1.536-419.84-2.56-424.96 0-7.68-1.536-14.848-5.12-19.968-16.384-16.384-33.28-10.752-41.984-3.584-64 52.224-206.848 168.448-223.232 202.752-18.944 36.864-11.776 112.64-11.776 245.76 0 30.208-225.28 208.896-273.92 253.44-11.776 12.8-39.936 38.4-39.936 86.016 0 69.632 56.832 113.664 119.808 113.664h681.472zM736.256 383.48800000000006h204.8c13.824 0 25.6-11.776 25.6-25.6s-11.264-25.6-25.6-25.6h-204.8c-13.824 0-25.6 11.776-25.6 25.6s11.776 25.6 25.6 25.6z m-25.6-139.264c0 13.824 11.264 25.6 25.6 25.6h204.8c13.824 0 25.6-11.776 25.6-25.6s-11.264-25.6-25.6-25.6h-204.8c-13.824 0-25.6 11.776-25.6 25.6z m0-113.664c0 13.824 11.264 25.6 25.6 25.6h204.8c13.824 0 25.6-11.776 25.6-25.6s-11.264-25.6-25.6-25.6h-204.8c-13.824 0-25.6 11.776-25.6 25.6z"  horiz-adv-x="1024" />

    
    <glyph glyph-name="jinggao" unicode="&#59067;" d="M999.78 43.46333333333337L565 796.4533333333334a60.61 60.61 0 0 1-53 30.62 60.61 60.61 0 0 1-53-30.62l-434.74-753a61.24 61.24 0 0 1 53-91.87h869.5a61.24 61.24 0 0 1 53 91.87z m-39.31-38.54a15.56 15.56 0 0 0-13.72-7.93H77.25a15.84 15.84 0 0 0-13.72 23.78l434.75 753a15.84 15.84 0 0 0 27.44 0l434.74-753a15.56 15.56 0 0 0 0-15.86zM512 260.33333333333337a22.7 22.7 0 0 1 22.7 22.7V585.7933333333333a22.7 22.7 0 1 1-45.39 0v-302.74A22.7 22.7 0 0 1 512 260.33333333333337zM512 135.4233333333334m-41.36 0a41.36 41.36 0 1 1 82.72 0 41.36 41.36 0 1 1-82.72 0Z"  horiz-adv-x="1024" />

    
    <glyph glyph-name="dangan" unicode="&#58987;" d="M103.8-37.9c-21.6 0-39.1 17.7-39.1 39.5V766.3c0 21.8 17.6 39.5 39.1 39.5h275.9c15.6 0 29.7-9.4 35.9-23.8l10.8-25.3h445.7c21.6 0 39.1-17.7 39.1-39.5v-174.6h9.1c21.5-0.1 38.9-17.8 38.9-39.5v-501.4c0-21.8-17.5-39.5-39.1-39.5H103.8z m7.1 46.3h802.2V496.3H463.6c-7.4 0-15.2 0.5-21.2 5.3-8.5 6.9-9.6 18.5-11.7 28.6-2.5 11.9-5 23.8-7.6 35.8-3.3 15.5-6.6 31-9.9 46.6-3.4 16-6.8 32.1-10.2 48.1-2.8 13.4-5.7 26.8-8.5 40.3-1.6 7.7-3.3 15.4-4.9 23.1-0.2 0.8-0.3 1.6-0.5 2.4l-14.1 33H111v-751.1z m364.3 534.1H865V710.4H439.7l35.5-167.9z"  horiz-adv-x="1024" />

    
    <glyph glyph-name="wancheng" unicode="&#59030;" d="M804.572 786.284H219.428c-80.456 0-146.284-65.828-146.284-146.284v-548.572c0-80.456 65.828-146.284 146.284-146.284h585.144c80.456 0 146.284 65.828 146.284 146.284V640c0 80.456-65.828 146.284-146.284 146.284m0-73.14c40.34 0 73.144-32.804 73.144-73.144v-548.572c0-40.34-32.803-73.144-73.144-73.144H219.428c-40.34 0-73.144 32.803-73.144 73.144V640c0 40.34 32.803 73.144 73.144 73.144h585.144M329.144 640c-20.116 0-36.572 16.456-36.572 36.572V822.856c0 20.116 16.456 36.572 36.572 36.572s36.572-16.456 36.572-36.572v-146.284c0-20.116-16.46-36.572-36.572-36.572m365.712 0c-20.117 0-36.572 16.456-36.572 36.572V822.856c0 20.116 16.455 36.572 36.572 36.572s36.572-16.456 36.572-36.572v-146.284c0-20.116-16.456-36.572-36.572-36.572m73.866-120.381c-14.229 14.228-37.484 14.228-51.712 0L458.414 261.018l-103.46 103.424c-14.228 14.228-37.483 14.228-51.712 0s-14.228-37.484 0-51.712l129.316-129.28c14.229-14.229 37.484-14.229 51.712 0L768.722 467.9c14.228 14.229 14.228 37.49 0 51.718"  horiz-adv-x="1024" />

    
    <glyph glyph-name="qushi" unicode="&#58913;" d="M103.552 240.256h63.488c11.008-0.317 21.95 4.608 28.16 13.824l68.03 100.608 97.09-201.277c4.096-8.576 12.16-14.464 21.315-16.64 16.64-4.224 34.048 4.48 39.101 19.84l131.2 396.41 95.616-289.09c3.01-13.568 15.81-23.68 31.299-23.68h159.872c2.754 0 5.376 0.322 7.997 0.962 10.88-18.176 31.805-30.53 55.936-30.53 35.328 0 63.933 26.434 63.933 59.074 0 32.702-28.605 59.136-63.933 59.136-24.064 0-44.995-12.349-55.936-30.53a33.36 33.36 0 0 1-7.997 0.962H702.72L582.59 662.4c-5.12 15.55-22.98 24.387-39.875 19.584-5.822-1.664-10.88-4.803-14.592-8.77-3.134-3.073-5.504-6.846-6.979-11.137L384.44 248.704l-86.456 179.395c-1.536 3.645-3.773 7.101-6.912 9.984a1.244 1.244 0 0 1-0.445 0.384l-0.579 0.573c-9.027 7.936-22.85 10.624-35.072 5.504-6.912-2.816-12.227-7.68-15.421-13.507L150.4 299.325h-46.848c-17.664 0-31.939-13.245-31.939-29.568 0-16.256 14.342-29.501 31.939-29.501z"  horiz-adv-x="1024" />

    
    <glyph glyph-name="geomark-icon" unicode="&#58938;" d="M512 196c-10 0-18 4-24 10 0 2-10 12-28 34-24 28-38 44-44 50s-20 22-42 48-36 46-42 56l-36 54c-16 24-26 44-32 60s-12 34-18 54-8 40-8 58c0 76 28 140 82 194S438 896 514 896s142-28 196-82 82-118 82-194c0-24-6-50-16-78s-20-52-32-74-28-46-50-76c-24-30-42-54-56-70s-32-38-58-68c-8-8-14-14-18-20-14-14-22-24-26-28-6-6-14-10-24-10z m2 636c-58 0-108-20-150-62s-62-92-62-150c0-28 4-56 14-84s26-54 44-80 34-48 52-68c16-20 36-42 58-64 22-24 36-40 44-52 10 12 30 34 58 66 30 32 54 60 74 84s38 56 56 92c16 36 26 72 26 106 0 58-22 108-64 150s-92 62-150 62z m0-318c-34 0-62 12-84 36-24 24-36 52-36 84 0 34 12 62 36 86 22 24 50 36 84 36s62-12 86-36 36-52 36-86c0-32-12-60-36-84s-52-36-86-36z m0 178c-16 0-28-4-40-16s-16-24-16-40 4-30 16-42c12-10 24-16 40-16s30 6 40 16c12 12 18 26 18 42s-6 28-18 40c-10 12-24 16-40 16z m414-666H98c-12 0-22 6-28 16s-6 20-2 30l124 254c6 12 14 18 28 18h72c8 0 16-2 22-8s10-14 10-24c0-8-4-16-10-22s-14-10-22-10h-52l-92-190h732l-84 190h-62c-8 0-16 4-22 10s-8 14-8 22c0 10 2 18 8 24s14 8 22 8h84c14 0 22-6 28-18l112-254c4-10 2-20-4-30s-14-16-26-16z"  horiz-adv-x="1024" />

    
    <glyph glyph-name="shebei1" unicode="&#58894;" d="M984.92190489 561.3866666700001V786.64380979C984.92190489 786.09523823 129.97333333 786.0266666699999 129.97333333 786.0266666699999V560.83809511c0 0.54857156 854.94857156 0.61714313 854.94857156 0.61714312zM81.15047645 252.54095198000005a54.65142844 54.65142844 0 0 0-7.40571469 27.42857157V505.70666667c0 10.08 2.74285688 19.54285688 7.47428625 27.70285688a54.65142844 54.65142844 0 0 0-7.47428625 27.42857156V786.57523823c0 30.72 25.02857156 55.68 56.22857157 55.68h854.94857156a56.22857156 56.22857156 0 0 0 56.22857156-55.61142843v-225.87428625c0-10.01142844-2.74285688-19.47428531-7.47428625-27.63428532 4.86857156-8.29714312 7.47428531-17.82857156 7.47428625-27.42857156v-225.73714312c0-10.08-2.74285688-19.54285688-7.47428625-27.70285688 4.86857156-8.29714312 7.47428531-17.82857156 7.47428625-27.42857156v-225.73714313a55.81714313 55.81714313 0 0 0-56.22857156-55.68H129.97333333a56.22857156 56.22857156 0 0 0-56.22857157 55.61142938V224.90666667000005c0 10.01142844 2.74285688 19.47428531 7.47428625 27.63428531z m903.77142844-252.89142843V224.83809511000004c0-0.54857156-854.94857156-0.61714313-854.94857156-0.61714313v-225.25714218c0 0.48 854.94857156 0.61714313 854.94857156 0.61714218z m0 280.86857156V505.77523823c0-0.54857156-854.94857156-0.61714313-854.94857156-0.61714312v-225.25714313c0 0.48 854.94857156 0.61714313 854.94857156 0.61714313zM214.17904801 673.70666667a28.11428531 28.11428531 0 1 1 0 56.22857156 28.11428531 28.11428531 0 0 1 0-56.22857156z m112.38857063 0a28.11428531 28.11428531 0 1 1 0 56.22857156 28.11428531 28.11428531 0 0 1 0-56.22857156z m265.16571469 28.11428531a28.11428531 28.11428531 0 0 0 27.56571468 28.11428625h281.89714219a28.11428531 28.11428531 0 0 0 0-56.22857156h-281.82857156a28.11428531 28.11428531 0 0 0-27.63428531 28.11428531zM214.17904801 392.83809511a28.11428531 28.11428531 0 1 1 0 56.22857156 28.11428531 28.11428531 0 0 1 0-56.22857156z m112.38857063 0a28.11428531 28.11428531 0 1 1 0 56.22857156 28.11428531 28.11428531 0 0 1 0-56.22857156z m265.16571469 28.11428625a28.11428531 28.11428531 0 0 0 27.56571468 28.11428531h281.89714219a28.11428531 28.11428531 0 0 0 0-56.22857156h-281.82857156a28.11428531 28.11428531 0 0 0-27.63428531 28.11428625z m-377.55428532-308.98285781a28.11428531 28.11428531 0 1 1 0 56.22857156 28.11428531 28.11428531 0 0 1 0-56.22857156z m112.38857063 0a28.11428531 28.11428531 0 1 1 0 56.22857156 28.11428531 28.11428531 0 0 1 0-56.22857156z m265.16571469 28.11428625a28.11428531 28.11428531 0 0 0 27.56571468 28.11428531h281.89714219a28.11428531 28.11428531 0 0 0 0-56.22857156h-281.82857156a28.11428531 28.11428531 0 0 0-27.63428531 28.11428625z"  horiz-adv-x="1097" />

    
    <glyph glyph-name="shebei" unicode="&#58904;" d="M616.319 65.467H519.36v111.54h24.34c-8.464 19.443-14.952 37.863-19.572 56.283H159.99c-17.063 0-32.555 2.16-32.555 18.408v19.454h389.798c-0.366 0-0.814 12.496-0.814 17.94 0 12.103 1.203 18.899 2.976 37.318h-391.96V674.346c0 7.082 6.145 13.543 10.965 18.609 4.801 5.056 14.507 7.984 21.59 7.984h602.994c7.084 0 18.343-8.071 18.343-26.593V511.91c18.42-3.871 36.84-9.903 56.282-17.587V674.346c0 35.637-26.898 82.875-63.368 82.875H159.99c-20.756 0-44.802-10.57-59.99-25.492-15.187-14.942-28.846-36.126-28.846-57.383v-423.673c0-42 24.446-73.666 88.836-73.666h209.969v-111.54h-60.39c-7.083 0-13.162-3.686-18.218-8.761-5.075-5.056-7.594-11.7-7.594-18.801 0-7.084 2.519-14.854 7.594-19.672 5.056-4.82 11.135-9.049 18.218-9.049h306.75c7.083 0 13.144 3.938 18.219 8.757 5.056 4.819 7.594 11.525 7.594 18.608 0 7.1-2.538 14.714-7.594 19.771-5.076 5.075-11.136 9.147-18.22 9.147z m-133.797 0H426.24v111.54h56.282v-111.54zM744.23 213.735c-38.654 0-70.097 31.452-70.097 70.098s31.443 70.097 70.097 70.097 70.098-31.452 70.098-70.097-31.445-70.098-70.098-70.098z m0 102.81c-18.036 0-32.712-14.676-32.712-32.711s14.676-32.712 32.712-32.712 32.712 14.676 32.712 32.712-14.677 32.712-32.712 32.712zM743.737 83.887c-14.631 0-28.413 1.635-38.864 11.913-10.506 10.314-16.393 22.093-16.594 36.825-4.646 1.68-9.21 3.05-13.691 5.168-10.26-9.876-23.685-16.044-37.979-16.044h-0.512c-14.63 0-28.422 5.185-38.873 15.462-10.57 10.37-16.466 24.033-16.602 38.855-0.128 14.732 5.449 28.528 15.717 39.08a162.364 162.364 0 0 0-5.659 13.688c-14.23 0.274-27.6 5.85-37.805 15.872-10.57 10.386-16.466 24.264-16.602 39.087s5.512 28.799 15.91 39.368c10.322 10.515 24.104 16.39 38.817 16.59a162.393 162.393 0 0 0 5.933 14.145c-9.839 10.277-15.306 23.712-15.388 38.042-0.082 14.822 5.605 28.787 16.028 39.32 21.45 21.705 56.507 21.979 78.285 0.676a170.524 170.524 0 0 0 12.887 5.293c0.494 30.176 25.192 54.563 55.485 54.563 30.294 0 54.993-24.388 55.485-54.563 4.692-1.697 9.3-3.614 13.819-5.731 21.503 20.755 55.868 20.755 77.353-0.238 10.606-10.35 16.53-24.223 16.695-39.046 0.164-14.75-5.385-28.66-15.626-39.23a162.84 162.84 0 0 0 5.63-13.58c29.874-0.457 54.218-24.736 54.6-54.8 0.183-14.823-5.421-28.843-15.781-39.45-10.286-10.532-24.042-16.465-38.755-16.72a163.057 163.057 0 0 0-5.905-14.184c9.876-10.241 15.38-23.676 15.516-37.97 0.137-14.823-5.512-28.806-15.89-39.393-21.367-21.76-56.444-22.16-78.286-0.913-4.527-2.117-9.136-0.011-13.837-1.69-0.584-29.883-24.936-50.394-55.001-50.394l-0.51-0.001z m-74.58 95.274c3.396 0 6.763-0.932 9.73-2.72a124.326 124.326 0 0 1 34.848-14.567 18.7 18.7 0 0 0 11.974-9.31 18.683 18.683 0 0 0 1.123-15.133c-0.803-2.263-1.187-4.271-1.169-6.188 0.037-4.874 1.963-9.4 5.413-12.796 3.45-3.377 7.274-5.294 12.842-5.184 9.985 0.09 18.036 8.288 17.954 18.273-0.018 1.698-0.393 3.578-1.16 5.75a18.723 18.723 0 0 0 1.196 15.115 18.757 18.757 0 0 0 12.011 9.255 125.252 125.252 0 0 1 35.05 14.421 18.797 18.797 0 0 0 15.06 1.88 18.675 18.675 0 0 0 11.491-9.912c1.023-2.155 2.173-3.852 3.542-5.203 7.147-6.991 18.63-6.9 25.63 0.237a17.986 17.986 0 0 1 5.184 12.852c-0.046 4.819-1.972 9.347-5.422 12.742-1.223 1.205-2.838 2.282-4.956 3.305a18.665 18.665 0 0 0-9.811 11.536 18.68 18.68 0 0 0 1.963 15.024 124.647 124.647 0 0 1 14.659 35.25 18.736 18.736 0 0 0 9.264 11.993 18.696 18.696 0 0 0 15.115 1.187 19.208 19.208 0 0 1 6.225-1.15c4.846 0.055 9.364 1.989 12.742 5.458a17.96 17.96 0 0 1 5.148 12.869c-0.128 9.967-8.972 17.36-18.318 17.87-1.789-0.255-3.551-0.383-5.732-1.168-4.992-1.77-10.496-1.387-15.15 1.132a18.712 18.712 0 0 0-9.32 11.993 124.78 124.78 0 0 1-14.422 34.812 18.667 18.667 0 0 0-1.916 15.023 18.706 18.706 0 0 0 9.839 11.518c2.19 1.041 3.915 2.227 5.248 3.596a17.972 17.972 0 0 1 5.166 12.87 17.935 17.935 0 0 1-5.44 12.742c-7.147 6.972-18.638 6.846-25.611-0.292-1.186-1.223-2.254-2.83-3.25-4.928a18.727 18.727 0 0 0-11.527-9.858 18.637 18.637 0 0 0-15.05 1.935 124.142 124.142 0 0 1-34.976 14.494 18.707 18.707 0 0 0-12.012 9.292 18.69 18.69 0 0 0-1.159 15.133c0.785 2.209 1.169 4.161 1.169 5.987 0 9.985-8.123 18.108-18.109 18.108s-18.108-8.123-18.108-18.108c0-1.826 0.384-3.779 1.168-5.987a18.69 18.69 0 0 0-1.159-15.133 18.712 18.712 0 0 0-12.002-9.292 124.176 124.176 0 0 1-34.291-14.074 18.644 18.644 0 0 0-15.06-1.826 18.637 18.637 0 0 0-11.455 9.93c-1.013 2.173-2.173 3.87-3.542 5.221-7.11 6.992-18.61 6.956-25.63-0.164a17.944 17.944 0 0 1-5.22-12.815 17.94 17.94 0 0 1 5.376-12.76c1.232-1.223 2.83-2.3 4.902-3.304 4.764-2.282 8.332-6.5 9.82-11.574s0.757-10.533-2.008-15.041a124.84 124.84 0 0 1-14.768-35.177 18.736 18.736 0 0 0-9.32-11.975 18.78 18.78 0 0 0-15.124-1.114c-2.226 0.785-4.107 1.333-6.142 1.15-4.902-0.036-9.43-1.953-12.815-5.402-3.396-3.451-5.24-8.014-5.194-12.852s1.963-9.364 5.413-12.76a18.033 18.033 0 0 1 12.687-5.184c1.542-0.165 3.687 0.366 6.005 1.169 5.002 1.698 10.46 1.296 15.088-1.241a18.686 18.686 0 0 0 9.219-11.994 124.774 124.774 0 0 1 14.385-34.975 18.712 18.712 0 0 0 1.87-15.06 18.718 18.718 0 0 0-9.903-11.483c-2.164-1.022-3.88-2.19-5.24-3.577a17.98 17.98 0 0 1-5.175-12.833 17.955 17.955 0 0 1 5.422-12.743c3.459-3.413 8.589-5.823 12.852-5.202 4.837 0.037 9.373 1.972 12.76 5.421 1.186 1.205 2.254 2.811 3.257 4.911a18.752 18.752 0 0 0 11.546 9.84c1.742 0.51 3.53 0.765 5.31 0.765z"  horiz-adv-x="1024" />

    
    <glyph glyph-name="jiazaizhong3" unicode="&#58890;" d="M532.964 578.977c-58.259 0-105.72 47.323-105.72 105.581 0 58.259 47.461 105.582 105.72 105.582 58.258 0 105.582-47.323 105.582-105.582 0-58.257-47.324-105.581-105.582-105.581z m-224.862-83.859c-53.138 0-96.45 43.312-96.45 96.449 0 53.276 43.313 96.448 96.45 96.448 53.136 0 96.448-43.312 96.448-96.448 0-53.137-43.313-96.449-96.448-96.449z m-95.621-218.223c-46.911 0-85.104 38.057-85.104 85.104 0 46.909 38.191 85.104 85.104 85.104 46.91 0 85.104-38.195 85.104-85.104-0.001-47.048-38.194-85.104-85.104-85.104z m95.621-216.285c-39.716 0-72.095 32.383-72.095 72.095 0 39.854 32.379 72.096 72.095 72.096 39.715 0 72.093-32.383 72.093-72.096-0.001-39.711-32.379-72.095-72.093-72.095z m224.862-82.75c-34.73 0-62.961 28.229-62.961 62.961s28.229 62.966 62.961 62.966c34.733 0 62.965-28.232 62.965-62.966 0-34.732-28.231-62.961-62.965-62.961z m228.323 106.552c-28.09 0-50.922 22.832-50.922 50.924 0 28.09 22.832 50.922 50.922 50.922 28.095 0 50.927-22.832 50.927-50.922 0-28.092-22.832-50.924-50.927-50.924z m93.548 235.381c-22.974 0-41.794 18.68-41.794 41.789 0 22.973 18.686 41.792 41.793 41.792 22.97 0 41.789-18.683 41.789-41.792 0-22.969-18.819-41.789-41.788-41.789z m-125.927 268.73c0-17.853 14.527-32.379 32.379-32.379 17.854 0 32.384 14.526 32.384 32.379 0 17.851-14.531 32.379-32.384 32.379-17.85 0-32.379-14.527-32.379-32.379z"  horiz-adv-x="1024" />

    
    <glyph glyph-name="dianhua" unicode="&#58891;" d="M696.832 191.23199999999997c-25.6 25.6-76.8 68.096-126.464 68.096a73.984 73.984 0 0 1-43.776-13.568l-30.976-22.528c-48.64 10.24-98.56 52.736-134.144 114.176s-47.616 126.208-32.512 174.592l35.072 15.616c44.544 19.968 59.136 76.8 40.96 162.56C390.144 757.248 340.224 886.016 256 886.016a76.8 76.8 0 0 1-23.808-3.84l-59.392-19.456a148.736 148.736 0 0 1-98.816-110.848c-31.744-153.6 8.192-341.504 109.312-517.12s244.736-303.872 393.216-353.024a148.736 148.736 0 0 1 146.432 30.72L768-45.567999999999984c16.384 14.848 40.192 49.152 15.872 112.64a380.928 380.928 0 0 1-88.064 124.16z m38.912-199.68L689.152-51.200000000000045a98.56 98.56 0 0 0-97.024-20.48C455.424-25.600000000000023 322.048 95.23199999999997 226.816 260.096S93.952 600.576 123.392 742.4A98.56 98.56 0 0 0 189.44 815.36l59.136 19.456a28.928 28.928 0 0 0 7.424 1.28c38.912 0 82.944-81.408 99.072-157.44 11.776-55.808 6.912-97.28-12.544-106.24l-53.248-23.808-1.28-2.816c-29.44-62.208-18.432-151.808 28.672-233.216s119.04-135.68 187.392-141.312h3.072L555.52 204.79999999999995a23.296 23.296 0 0 0 14.336 4.096c46.848 0 140.8-89.856 168.192-160.256 7.168-18.688 12.544-43.776-2.56-57.344z m170.752 630.528A454.144 454.144 0 0 1 640 849.664a25.6 25.6 0 0 1-7.936 1.28 25.6 25.6 0 0 1-7.68-48.896 407.296 407.296 0 0 0 261.12-513.28 25.6 25.6 0 0 1 16.128-32.768 24.064 24.064 0 0 1 7.68-1.28 25.6 25.6 0 0 1 23.808 17.408 454.4 454.4 0 0 1-26.88 349.696zM593.152 705.28a25.6 25.6 0 0 1-7.936 0 25.6 25.6 0 0 1-7.936-48.896 256 256 0 0 0 163.328-321.792 25.6 25.6 0 0 1 16.128-31.744 25.6 25.6 0 0 1 7.936 0 25.6 25.6 0 0 1 23.808 17.408 307.2 307.2 0 0 1-195.584 384z m-62.72-192A102.4 102.4 0 0 0 596.736 384a25.6 25.6 0 0 1 16.128-31.744 25.6 25.6 0 0 1 7.68 0 25.6 25.6 0 0 1 23.808 17.408 153.6 153.6 0 0 1-98.304 194.048A25.6 25.6 0 0 1 537.6 563.2a25.6 25.6 0 0 1-7.936-48.896z"  horiz-adv-x="1024" />

    
    <glyph glyph-name="kaishi" unicode="&#58908;" d="M382.7 160l388 224-388 224v-448z m64 337.1l196-113.1-196-113.1V497.1zM512 832C264.6 832 64 631.4 64 384s200.6-448 448-448 448 200.6 448 448S759.4 832 512 832z m271.6-719.7c-35.3-35.3-76.4-63-122.1-82.3-47.3-20-97.6-30.2-149.5-30.2S409.8 9.9 362.5 30c-45.7 19.3-86.8 47-122.1 82.3s-63 76.4-82.3 122.1c-20 47.3-30.2 97.6-30.2 149.5s10.1 102.2 30.2 149.5c19.3 45.7 47 86.8 82.3 122.1s76.4 63 122.1 82.3C409.8 757.9 460.1 768 512 768c51.9 0 102.2-10.1 149.5-30.2 45.7-19.3 86.8-47 122.1-82.3s63-76.4 82.3-122.1c20-47.3 30.2-97.6 30.2-149.5S886 281.7 865.9 234.4c-19.3-45.7-47-86.8-82.3-122.1z"  horiz-adv-x="1024" />

    
    <glyph glyph-name="add" unicode="&#58885;" d="M510.12507762-71.58469632000003c-250.93545643 0-454.35920043 203.46473813-454.35920043 454.43255751S259.18962119 837.26531584 510.12507762 837.26531584c250.93761365 0 454.36135765-203.44963527 454.36135765-454.41745465S761.06269127-71.58469632000003 510.12507762-71.58469632000003zM510.12507762 780.4652908099999c-219.57095083 0-397.56349099-178.01843029-397.56349099-397.61742962S290.55412565-14.771726790000002 510.12507762-14.771726790000002s397.56349099 178.02058752 397.56349099 397.61958798S729.69602845 780.4652908099999 510.12507762 780.4652908099999zM680.51004643 354.44137643L538.52508957 354.44137643l0-142.00653369c0-15.67685859-12.71452331-28.39569749-28.39785472-28.39569749-15.68333141 0-28.39569749 12.7188389-28.3956975 28.39569749l0 142.00653369-141.98927246 0c-15.68333141 0-28.39785472 12.71668053-28.39785472 28.40648476 0 15.67901582 12.71668053 28.39569749 28.39785472 28.3956975l141.98927246 0 0 142.0130065c0 15.67685859 12.71452331 28.38922467 28.3956975 28.38922468 15.68548864 0 28.39785472-12.71020771 28.39785472-28.38922468l0-142.0130065 141.984958 0c15.68548864 0 28.39785472-12.71668053 28.39785472-28.3956975C708.90790115 367.15805695999995 696.19553507 354.44137643 680.51004643 354.44137643z"  horiz-adv-x="1024" />

    
    <glyph glyph-name="baojing" unicode="&#58931;" d="M512 524.8c76.8 0 134.4-64 134.4-140.8s-64-140.8-134.4-140.8-134.4 64-134.4 140.8 57.6 140.8 134.4 140.8z m364.8 230.4c-12.8 12.8-38.4 12.8-57.6 0-12.8-12.8-12.8-38.4 0-57.6 83.2-83.2 128-198.4 128-313.6 0-121.6-44.8-230.4-128-313.6-12.8-12.8-12.8-44.8 0-57.6 6.4-6.4 19.2-12.8 25.6-12.8 12.8 0 19.2 6.4 25.6 12.8C972.8 108.79999999999995 1024 243.20000000000005 1024 384c0 140.8-51.2 275.2-147.2 371.2zM76.8 384c0 121.6 44.8 230.4 128 313.6 12.8 12.8 12.8 44.8 0 57.6-12.8 19.2-38.4 19.2-57.6 0C51.2 659.2 0 524.8 0 384c0-140.8 51.2-275.2 147.2-371.2 12.8-6.4 19.2-12.8 32-12.8s19.2 6.4 25.6 12.8c12.8 12.8 12.8 38.4 0 57.6-83.2 83.2-128 192-128 313.6z m678.4 249.6c-12.8 12.8-38.4 12.8-57.6 0-12.8-12.8-12.8-44.8 0-57.6 51.2-51.2 76.8-121.6 76.8-192s-25.6-140.8-76.8-192c-12.8-12.8-12.8-44.8 0-57.6 6.4-6.4 19.2-12.8 25.6-12.8 12.8 0 19.2 6.4 25.6 12.8 64 64 102.4 153.6 102.4 249.6s-32 185.6-96 249.6z m-428.8 0c-12.8 12.8-38.4 12.8-57.6 0-64-64-102.4-153.6-102.4-249.6s38.4-185.6 102.4-249.6c6.4-6.4 19.2-12.8 25.6-12.8 12.8 0 19.2 6.4 25.6 12.8 12.8 12.8 12.8 38.4 0 57.6-51.2 51.2-76.8 121.6-76.8 192S268.8 524.8 320 576c19.2 19.2 19.2 44.8 6.4 57.6z"  horiz-adv-x="1024" />

    
    <glyph glyph-name="guzhang" unicode="&#58961;" d="M1097.30521625 59.39917551999997L647.39957562 839.83951927C631.69817094 867.4176277 602.50966156 884.52813333 570.70425125 884.52813333s-60.99391875-17.11050562-76.69532344-44.68861406L44.10328719 59.39917551999997c-16.10400469-27.37680844-16.10400469-61.19521875-0.2013-88.77332813 15.90270469-27.37680844 45.29251406-44.28601406 76.89662343-44.08471406h899.81128126c31.80541031-0.2013 61.19521875 16.50660562 76.89662437 44.08471406 15.90270469 27.57810844 15.70140469 61.39651875-0.2013 88.77332813z m-70.8576225-47.305515c-1.2078-2.21430094-3.62340094-3.42210094-6.03900187-3.22080094H120.79861063c-2.61690094-0.2013-5.03250187 1.0065-6.44160188 3.22080094-1.2078 2.21430094-1.2078 5.03250187 0.4026 7.04550187L564.66524938 797.56650614c1.2078 2.01300094 3.42210094 3.42210094 5.63640187 3.42210094 2.41560094 0 4.62990187-1.2078 5.63640188-3.42210094l450.30824062-778.82994375c1.4091-2.21430094 1.4091-4.62990187 0.2013-6.64290187z m0 0M529.84033906 579.3572377099999v-320.46970032c0-22.5456075 18.31830562-40.86391313 40.86391219-40.86391218 22.5456075 0 40.86391313 18.31830562 40.86391312 40.86391218V579.3572377099999c0 22.5456075-18.31830562 40.86391313-40.86391312 40.86391312-22.5456075 0-40.86391313-18.31830562-40.86391219-40.86391313z m0-1e-8M521.18443625 117.57489333000001c0-17.71440562 9.46110281-34.01971031 24.7599075-42.87691313 15.29880469-8.85720281 34.22101031-8.85720281 49.51981594 0 15.29880469 8.85720281 24.7599075 25.1625075 24.7599075 42.87691313s-9.46110281 34.01971031-24.7599075 42.87691313c-15.29880469 8.85720281-34.22101031 8.85720281-49.51981594 0a49.53994594 49.53994594 0 0 1-24.7599075-42.87691313z m0 0"  horiz-adv-x="1150" />

    
    <glyph glyph-name="zhengchang" unicode="&#59643;" d="M512-15.999999900000034A399.9999999 399.9999999 0 1 1 512 783.9999999a399.9999999 399.9999999 0 0 1 0-799.9999998z m0-50.0000001A450 450 0 1 0 512 834a450 450 0 0 0 0-900z m-239.15000039 314.1500001A274.8499998 274.8499998 0 0 1 512 108.99999990000003a274.8499998 274.8499998 0 0 1 237.2000001 135.74999971 24.99999961 24.99999961 0 1 1-43.09999981 25.35000029A224.84999971 224.84999971 0 0 0 512 159c-81.8499999 0-155.99999971 43.9999998-195.6999999 113.9000001a24.99999961 24.99999961 0 1 1-43.49999971-24.75zM349.4999999 408.99999961a62.4999999 62.4999999 0 1 1 0 125.00000068 62.4999999 62.4999999 0 0 1 0-125.00000068z m325.0000002 0a62.4999999 62.4999999 0 1 1 0 125.00000068 62.4999999 62.4999999 0 0 1 0-125.00000068z"  horiz-adv-x="1024" />

    
    <glyph glyph-name="daochu" unicode="&#60184;" d="M109.011-18.989V417.04h67.082v-368.948h670.814V417.04h67.081v-436.029H109.011zM545.04 685.365v-536.65h-67.082v536.65L317.396 510.718l-37.897 37.897 232 237.372 239.698-235.063-37.93-37.914L545.04 685.365z"  horiz-adv-x="1024" />

    
    <glyph glyph-name="paizhaoxiangjixianxing" unicode="&#59735;" d="M323.555556 640l11.548444 92.387556A56.888889 56.888889 0 0 0 391.566222 782.222222h240.867556a56.888889 56.888889 0 0 0 56.462222-49.834666L700.444444 640H910.222222a56.888889 56.888889 0 0 0 56.888889-56.888889v-540.444444a56.888889 56.888889 0 0 0-56.888889-56.888889H113.777778a56.888889 56.888889 0 0 0-56.888889 56.888889V583.111111a56.888889 56.888889 0 0 0 56.888889 56.888889h209.777778z m67.982222 85.333333l-17.749334-142.222222H113.777778v-540.444444h796.444444V583.111111h-259.982222l-17.806222 142.222222h-240.867556zM176.128 663.694222a28.444444 28.444444 0 1 0 0 56.888889h57.372444a28.444444 28.444444 0 1 0 0-56.888889H176.071111zM512 113.777778a199.111111 199.111111 0 1 0 0 398.222222 199.111111 199.111111 0 0 0 0-398.222222z m0 56.888889a142.222222 142.222222 0 1 1 0 284.444444 142.222222 142.222222 0 0 1 0-284.444444z"  horiz-adv-x="1024" />

    
    <glyph glyph-name="yujing" unicode="&#58926;" d="M512 520.533333a238.933333 238.933333 0 0 1-238.933333-238.933333v-204.8h477.866666v204.8a238.933333 238.933333 0 0 1-238.933333 238.933333z m0 68.266667a307.2 307.2 0 0 0 307.2-307.2v-273.066667H204.8v273.066667a307.2 307.2 0 0 0 307.2 307.2z m0 273.066667a34.133333 34.133333 0 0 0 34.133333-34.133334v-102.4a34.133333 34.133333 0 0 0-68.266666 0V827.733333a34.133333 34.133333 0 0 0 34.133333 34.133334z m452.027733-228.932267a34.133333 34.133333 0 0 0 0-48.264533l-72.430933-72.430934a34.133333 34.133333 0 1 0-48.264533 48.298667l72.3968 72.362667a34.133333 34.133333 0 0 0 48.298666 0z m-905.762133 0a34.133333 34.133333 0 0 0 48.264533 0l72.430934-72.3968a34.133333 34.133333 0 0 0-48.298667-48.298667L58.299733 584.704a34.133333 34.133333 0 0 0 0 48.264533zM763.426133 776.533333a34.133333 34.133333 0 0 0 12.4928-46.626133l-51.2-88.6784a34.133333 34.133333 0 0 0-59.118933 34.133333L716.8 764.040533a34.133333 34.133333 0 0 0 46.626133 12.4928z m-529.066666 0a34.133333 34.133333 0 0 0 46.626133-12.4928l51.2-88.6784a34.133333 34.133333 0 1 0-59.118933-34.133333L221.866667 729.9072A34.133333 34.133333 0 0 0 234.359467 776.533333zM170.666667-59.733333h682.666666a34.133333 34.133333 0 0 0 0-68.266667H170.666667a34.133333 34.133333 0 0 0 0 68.266667z"  horiz-adv-x="1024" />

    
    <glyph glyph-name="zanwushuju" unicode="&#58895;" d="M41.472 781.312z m-16.384 0c0-5.632 3.072-11.264 8.192-14.336 5.12-3.072 11.264-3.072 16.384 0s8.192 8.192 8.192 14.336c0 9.216-7.168 16.384-16.384 16.384-9.216-0.512-16.384-7.68-16.384-16.384m638.976-22.528c-12.8 0-23.04 10.24-23.04 23.04s10.24 23.04 23.04 23.04 23.04-10.24 23.04-23.04-10.24-23.04-23.04-23.04z m0 40.448c-9.728 0-17.408-7.68-17.408-17.408s7.68-17.408 17.408-17.408 17.408 7.68 17.408 17.408-8.192 17.408-17.408 17.408zM119.296-76.8H104.96V89.6h14.336v-166.4z m3.072 180.736l-13.824 4.608 28.672 86.016c13.312 39.424 26.112 78.848 39.424 117.76l13.824-4.608c-13.312-39.424-26.112-78.848-39.424-117.76l-28.672-86.016zM104.96 89.6c-0.512 6.656 1.536 12.288 3.072 17.408l0.512 1.536 13.824-4.608-0.512-1.536c-1.536-4.096-2.56-7.68-2.56-11.264L104.96 89.6zM128-102.912c-5.12 0-11.776 0.512-16.896 5.632-6.144 5.632-6.144 13.824-6.144 19.456V-76.8h14.336v-1.024c0-3.584 0-7.168 1.536-8.704l0.512-0.512c1.536-1.536 5.12-1.536 8.704-1.536h514.048c3.072 0 4.608 0.512 5.632 1.024l0.512 0.512c0.512 0.512 1.024 1.536 1.536 5.12V88.576c0 2.56 0 5.12-0.512 7.168-9.216 28.16-18.944 56.32-28.16 84.48-14.336 42.496-28.16 84.992-42.496 127.488-1.024 2.56-3.072 4.608-5.632 4.608H202.24c-2.56 0-5.632 0-7.68-0.512-1.536-0.512-3.072-2.048-3.584-3.584l-13.824 4.608c2.048 6.656 7.168 11.776 13.824 13.312 4.096 1.024 8.192 1.024 11.264 1.024h372.224c8.704 0.512 16.896-5.632 19.456-14.336 14.336-42.496 28.16-84.992 42.496-127.488 9.216-28.16 18.944-56.32 28.16-84.48v-0.512c1.024-4.096 1.024-8.192 1.024-11.776v-169.984c0-7.168-2.048-12.288-6.144-15.872-5.12-5.12-12.288-5.632-15.872-5.632H128zM385.024 1.024c-16.384 0-32.768 5.12-46.08 14.848-18.944 13.824-31.232 35.84-32.256 58.88 0 2.048-0.512 6.144-1.536 7.168l-0.512 0.512c-0.512 0.512-2.56 1.024-5.12 1.024H140.8c-4.096 0-7.168 3.072-7.168 7.168s3.072 7.168 7.168 7.168h158.72c5.12 0 10.752-1.024 15.36-5.12 6.144-5.12 6.656-13.312 6.656-17.408 1.024-18.432 10.752-36.864 26.112-47.616 11.776-8.704 26.624-12.8 40.96-12.288 16.896 0.512 33.792 8.704 44.544 21.504 9.728 10.752 15.36 25.6 15.872 39.424 0 3.584 0.512 10.752 6.144 15.872 4.608 5.12 11.264 5.632 15.872 6.144h158.72c4.096 0 7.168-3.072 7.168-7.168s-3.072-7.168-7.168-7.168H471.04c-3.584 0-5.12-0.512-5.632-1.024l-0.512-0.512c-1.024-1.024-1.536-4.608-1.536-5.632-0.512-17.92-7.168-35.328-19.456-48.64-13.824-15.872-33.792-25.6-54.784-26.624-1.536 0-2.56-0.512-4.096-0.512zM947.2 498.176s-11.776-39.424-34.816-45.056c0 0 29.184-11.776 34.816-40.448 0 0 4.608 41.984 37.888 43.008 0 0-36.352 19.456-37.888 42.496z m36.352 64.512s-4.608-14.848-13.312-16.896c0 0 10.752-4.608 13.312-15.36 0 0 1.536 15.872 14.336 15.872 0 0-13.824 7.68-14.336 16.384zM273.92 865.792s-8.704-30.208-26.624-34.304c0 0 22.016-8.704 26.624-31.232 0 0 3.584 32.256 28.672 32.768 0.512 0-27.648 14.848-28.672 32.768zM536.064 606.72l72.704-32.768 119.808 94.208-91.136-98.304 91.136-30.208 50.176 183.296L536.064 606.72z m100.864-59.392l-5.12-55.808 31.232 40.96-26.112 14.848zM338.944 258.56c-18.432-10.24-32.256-15.872-32.256-15.872l3.072-8.192c0.512 0 14.336 5.632 33.28 16.384l-4.096 7.68z m40.96 27.648c-8.704-6.656-17.408-13.312-26.624-18.944-2.048-1.536-2.56-4.096-1.536-6.144 1.536-2.048 4.096-2.56 6.144-1.536 9.728 6.144 18.944 12.8 27.648 19.456 1.024 1.024 2.048 2.56 1.536 4.096 0 1.536-1.536 3.072-2.56 3.584-2.048 0.512-3.584 0.512-4.608-0.512z m47.104 45.056c-2.048 1.536-4.608 1.024-6.144-1.024-7.168-10.24-15.36-19.968-25.088-29.184-1.536-1.536-1.536-4.608 0-6.144 1.536-1.536 4.608-1.536 6.144 0 10.24 9.728 18.944 19.968 26.112 30.72 0.512 1.024 1.024 2.048 0.512 3.072 0.512 0.512-0.512 1.536-1.536 2.56z m19.968 93.696c0-1.536 1.024-3.072 2.56-3.584s3.072-0.512 4.608 0.512c1.024 1.024 2.048 2.56 1.536 4.096-2.048 19.456-9.216 34.304-20.48 44.032-2.048 1.536-4.608 1.024-6.144-0.512-1.536-1.536-1.536-4.608 0.512-6.144 9.728-7.68 15.872-20.992 17.408-38.4z m-70.656 43.52c0.512 0 1.024 0 2.048 0.512 11.776 5.12 24.576 6.656 35.84 3.584 2.56-0.512 4.608 0.512 5.632 3.072 0.512 2.56-0.512 4.608-3.072 5.632-13.312 3.584-28.16 2.56-41.472-3.584-2.048-1.024-3.072-3.072-2.56-5.12 0-2.56 1.536-4.096 3.584-4.096z m-23.552-44.032c-1.024 3.584-1.024 7.168-0.512 10.752l4.096 13.312c2.048 3.584 4.096 6.656 6.656 9.216 1.536 1.536 1.536 4.608 0 6.144-1.536 1.536-4.608 1.536-6.144 0-11.264-11.776-15.872-26.624-12.288-41.984 0.512-2.56 3.072-3.584 5.12-3.072 2.048 1.024 3.584 3.584 3.072 5.632z m1.024-15.36c-2.048-1.536-2.56-4.096-1.024-6.144 4.608-6.656 10.752-13.312 17.92-19.456 2.56-2.048 5.632-4.608 8.192-6.656 2.048-1.536 4.608-1.024 6.144 1.024 1.536 2.048 1.024 4.608-1.024 6.144l-7.68 6.144c-6.656 5.632-12.288 11.776-16.384 17.92-1.536 2.048-4.096 2.56-6.144 1.024z m68.608-49.664c2.048 0 4.096 1.536 4.096 4.096 0 2.048-1.536 4.096-3.584 4.608-8.704 1.024-16.896 4.096-25.6 8.192-2.048 1.024-4.608 0-5.632-2.048s0-4.608 2.048-5.632c9.216-4.608 18.432-7.68 28.16-9.216h0.512z m32.768 10.752c-1.536-0.512-3.584-1.024-5.12-1.536 3.072 10.24 5.12 20.992 6.144 31.232 0 1.024-0.512 2.048-1.024 3.072s-2.048 1.536-3.072 1.536c-2.56 0-4.608-1.536-4.608-4.096-1.024-11.264-3.072-22.528-7.168-33.28-1.536 0-3.584 0-5.12-0.512-2.56 0-4.096-2.048-4.096-4.096 0-2.56 2.048-4.096 4.608-4.096h1.536c-1.536-4.096-3.584-8.192-5.632-12.288-1.024-2.048 0-4.608 2.048-5.632s4.608-0.512 5.632 1.536c3.072 5.632 5.632 11.264 7.68 16.896 3.584 0.512 7.168 1.536 10.752 2.56 2.56 0.512 3.584 3.072 3.072 5.12-0.512 3.072-3.072 4.608-5.632 3.584z m51.2 30.208C496.128 391.68 486.4 384 476.16 378.88c-2.048-1.024-3.072-3.584-1.536-6.144 1.024-2.048 3.584-3.072 6.144-1.536 10.24 5.632 20.992 13.312 31.744 22.528 1.024 1.024 1.536 2.56 1.536 4.096-0.512 1.536-1.536 3.072-3.072 3.072-2.048 1.024-3.584 0.512-4.608-0.512z m44.544 43.52c-1.024 0.512-2.048 1.024-3.072 1.024s-2.048-0.512-3.072-1.536c-7.168-9.728-14.848-18.944-22.528-26.624-1.536-1.536-1.536-4.608 0.512-6.144 1.536-1.536 4.608-1.536 6.144 0 7.68 8.192 15.36 17.408 23.04 27.648 0.512 1.024 1.024 2.048 1.024 3.072-0.512 0.512-1.024 1.536-2.048 2.56z m35.84 55.808c-1.024 0.512-2.048 0.512-3.072 0.512-1.024-0.512-2.048-1.024-2.56-2.048-6.656-12.288-14.336-24.064-22.016-35.328-1.024-1.536-1.024-3.072-0.512-4.608 0.512-1.536 2.048-2.56 3.584-2.56s3.072 0.512 4.096 2.048c7.68 11.776 15.36 24.064 22.528 36.352 0.512 1.024 0.512 2.048 0.512 3.072-0.512 1.536-1.536 2.048-2.56 2.56zM614.4 555.52c-1.024 0.512-2.048 0.512-3.584 0-1.024-0.512-2.048-1.024-2.56-2.56 0 0-5.632-13.312-15.36-32.768-1.024-2.048-0.512-4.608 2.048-5.632 2.048-1.024 4.608-0.512 5.632 2.048 10.24 19.456 15.872 32.768 15.872 33.28 1.024 2.048 0 4.608-2.048 5.632z"  horiz-adv-x="1024" />

    
    <glyph glyph-name="lunxunmoren" unicode="&#59065;" d="M512 824c59.4 0 117-11.6 171.2-34.5 52.4-22.2 99.4-53.9 139.9-94.3 40.4-40.4 72.2-87.5 94.3-139.9C940.4 501 952 443.4 952 384s-11.6-117-34.5-171.2c-22.2-52.4-53.9-99.4-94.3-139.9-40.4-40.4-87.5-72.2-139.9-94.3C629-44.4 571.4-56 512-56s-117 11.6-171.2 34.5c-52.4 22.2-99.4 53.9-139.9 94.3-40.4 40.4-72.2 87.5-94.3 139.9C83.6 267 72 324.6 72 384s11.6 117 34.5 171.2c22.2 52.4 53.9 99.4 94.3 139.9 40.4 40.4 87.5 72.2 139.9 94.3C395 812.4 452.6 824 512 824m0 72C229.2 896 0 666.8 0 384s229.2-512 512-512 512 229.2 512 512S794.8 896 512 896zM829.3 485.5l-45.8-77.4v-0.3l-0.2 0.1-3.3-5.6c-9.1-15.3-29.1-20.6-44.8-11.7-12.5 7-18.3 20.9-15.7 33.9l-4.6 1.2c-14.8 78.6-72.6 141.9-148 164.6l17 63.4C663.4 630.4 728 572.8 760.8 498l11.6 19.7c9.1 15.3 29.1 20.6 44.8 11.7 15.8-9 21.2-28.6 12.1-43.9zM711 329.3l63.5-16.6c-22.8-83.8-83.6-151.7-162.7-184.4l25.2-14.6c15.3-8.8 20.6-28.4 11.7-43.8-8.8-15.3-28.4-20.6-43.8-11.7l-83.3 48.1c-15.3 8.9-20.6 28.5-11.7 43.8 8.3 14.3 25.9 19.4 40.7 12.8l4.2 15.6c75.7 18 135.7 76.2 156.2 150.8zM467.9 600.8l-1.4-5.1c-83.3-15.4-149.5-79.2-168.6-161.2L234.4 451c20.6 85.9 80.9 156.3 160.4 190.8L375.4 653c-15.7 9.1-21.1 29.1-12 44.8 9.1 15.7 29.1 21.1 44.8 12l85.3-49.2c15.7-9.1 21.1-29.1 12-44.8-7.7-13.4-23.5-19.2-37.6-15zM233.6 360l8.7 14.6c8.8 15 28.5 20.1 43.8 11.5 15.3-8.6 20.6-27.8 11.7-42.7l-0.8-1.4c17.2-81.7 80.9-146.1 162.2-164.1l-17-63.4c-84 19.5-153.3 76.9-189.2 153.2l-3.3-5.6c-8.8-15-28.4-20.1-43.8-11.4-15.3 8.6-20.6 27.8-11.7 42.7l34.6 58.5c-0.4 3.3-1 6.5-1.2 9.8l6-1.7z m0 0"  horiz-adv-x="1024" />

    
    <glyph glyph-name="baoxiu1" unicode="&#58889;" d="M453.068061 223.479398l37.829284-37.829284-153.529374-154.856717a51.987612 51.987612 0 0 0-11.503642-30.086448l-39.820299-49.55415a54.642299 54.642299 0 0 0-13.052209-11.724866l-107.293583-59.288a53.757403 53.757403 0 0 0-66.367165 7.521612l-22.122388 22.122388a53.53618 53.53618 0 0 0-7.300388 66.367165l59.066777 107.514806a50.217821 50.217821 0 0 0 11.503641 13.052209l49.55415 40.041523a53.53618 53.53618 0 0 0 31.856239 11.94609l153.529374 153.750598 37.829284-37.829284-140.477165-145.344091-33.404806-33.404806-8.406508 8.185284-44.244776-35.174597-74.331225-116.80621 18.80403-18.80403 116.363762 73.667553 35.174598 44.244776-8.185284 8.185284z m601.286512 420.325376l-261.044181-260.822957a52.872508 52.872508 0 0 0-44.244777-15.264448 47.563135 47.563135 0 0 1-12.609761 0l-26.325642 30.75012c16.149343 9.070179 25.219523 34.953373 48.890478 44.244776l229.63039 228.966718-128.309852 128.7523-229.409166-229.851614c1.991015-17.919134-23.670955-44.244776-34.068478-63.491254l-41.368866 41.368866a49.996597 49.996597 0 0 1 0 12.830985 53.53618 53.53618 0 0 0 15.264448 44.244777l261.486629 261.044181a53.53618 53.53618 0 0 0 75.879792 0l146.228986-146.45021a53.757403 53.757403 0 0 0 0-75.658568z m-103.975225-696.412781a161.27221 161.27221 0 0 0-199.101494-22.122388L453.068061 223.479398l-40.926418 40.926418-37.829284 37.829284-82.516508 82.516508A256.840927 256.840927 0 0 0 7.301938 699.99564a53.53618 53.53618 0 0 0 89.816896 23.89218l88.489553-88.489553 54.421075 14.600776 14.600777 54.421075-91.14424 92.471583a53.53618 53.53618 0 0 0 23.228508 88.489553 256.840927 256.840927 0 0 0 322.765644-291.130629l45.793344-45.793344 42.696209-36.501941 97.780956-103.311553 41.368866-41.368866 227.860599-227.860598c32.741135-66.367165 44.244776-132.734329-14.379553-192.02233z m-55.527194 176.979106l-210.82636 210.605136-38.050508 37.165612-90.923015 90.923015-38.050508 38.050508-62.163911 62.163911a187.819076 187.819076 0 0 1-46.235791 189.588867c-49.996597 49.996597-120.345792 91.144239-184.279494 73.225105l104.196448-129.415971-28.095433-105.523792-105.523792-28.316657-132.734329 92.029135c-14.822-61.500239 32.741135-119.460896 80.967941-167.687702a187.819076 187.819076 0 0 1 181.624807-48.669254c1.106119-1.106119 2.212239-2.433463 3.539582-3.539583l90.923016-91.144239 34.953373-34.953373 38.050508-37.829284 34.953374-34.953374 240.027912-240.249136a90.259344 90.259344 0 0 1 127.64618 127.64618z m-53.53618-74.773672l-48.890478-13.273433-36.059492 36.059492 13.273432 49.111702 49.55415 13.052209 36.059493-35.838269z m0 0"  horiz-adv-x="1071" />

    
    </font>
</defs>
</svg>
